G04 #@! TF.GenerationSoftware,KiCad,Pcbnew,8.0.1*
G04 #@! TF.CreationDate,2025-04-04T09:34:18-04:00*
G04 #@! TF.ProjectId,LVC_Custom,4c56435f-4375-4737-946f-6d2e6b696361,rev?*
G04 #@! TF.SameCoordinates,Original*
G04 #@! TF.FileFunction,Copper,L1,Top*
G04 #@! TF.FilePolarity,Positive*
%FSLAX46Y46*%
G04 Gerber Fmt 4.6, Leading zero omitted, Abs format (unit mm)*
G04 Created by KiCad (PCBNEW 8.0.1) date 2025-04-04 09:34:18*
%MOMM*%
%LPD*%
G01*
G04 APERTURE LIST*
G04 Aperture macros list*
%AMRoundRect*
0 Rectangle with rounded corners*
0 $1 Rounding radius*
0 $2 $3 $4 $5 $6 $7 $8 $9 X,Y pos of 4 corners*
0 Add a 4 corners polygon primitive as box body*
4,1,4,$2,$3,$4,$5,$6,$7,$8,$9,$2,$3,0*
0 Add four circle primitives for the rounded corners*
1,1,$1+$1,$2,$3*
1,1,$1+$1,$4,$5*
1,1,$1+$1,$6,$7*
1,1,$1+$1,$8,$9*
0 Add four rect primitives between the rounded corners*
20,1,$1+$1,$2,$3,$4,$5,0*
20,1,$1+$1,$4,$5,$6,$7,0*
20,1,$1+$1,$6,$7,$8,$9,0*
20,1,$1+$1,$8,$9,$2,$3,0*%
G04 Aperture macros list end*
G04 #@! TA.AperFunction,SMDPad,CuDef*
%ADD10RoundRect,0.150000X-0.512500X-0.150000X0.512500X-0.150000X0.512500X0.150000X-0.512500X0.150000X0*%
G04 #@! TD*
G04 #@! TA.AperFunction,SMDPad,CuDef*
%ADD11R,0.711200X1.498600*%
G04 #@! TD*
G04 #@! TA.AperFunction,SMDPad,CuDef*
%ADD12R,0.990600X0.812800*%
G04 #@! TD*
G04 #@! TA.AperFunction,ComponentPad*
%ADD13C,1.447800*%
G04 #@! TD*
G04 #@! TA.AperFunction,SMDPad,CuDef*
%ADD14RoundRect,0.062500X0.062500X-0.325000X0.062500X0.325000X-0.062500X0.325000X-0.062500X-0.325000X0*%
G04 #@! TD*
G04 #@! TA.AperFunction,SMDPad,CuDef*
%ADD15RoundRect,0.250000X0.400000X-0.250000X0.400000X0.250000X-0.400000X0.250000X-0.400000X-0.250000X0*%
G04 #@! TD*
G04 #@! TA.AperFunction,SMDPad,CuDef*
%ADD16RoundRect,0.250000X-1.450000X0.400000X-1.450000X-0.400000X1.450000X-0.400000X1.450000X0.400000X0*%
G04 #@! TD*
G04 #@! TA.AperFunction,SMDPad,CuDef*
%ADD17RoundRect,0.150000X0.512500X0.150000X-0.512500X0.150000X-0.512500X-0.150000X0.512500X-0.150000X0*%
G04 #@! TD*
G04 #@! TA.AperFunction,SMDPad,CuDef*
%ADD18RoundRect,0.250000X-1.500000X-0.650000X1.500000X-0.650000X1.500000X0.650000X-1.500000X0.650000X0*%
G04 #@! TD*
G04 #@! TA.AperFunction,SMDPad,CuDef*
%ADD19RoundRect,0.237500X0.250000X0.237500X-0.250000X0.237500X-0.250000X-0.237500X0.250000X-0.237500X0*%
G04 #@! TD*
G04 #@! TA.AperFunction,SMDPad,CuDef*
%ADD20RoundRect,0.237500X-0.300000X-0.237500X0.300000X-0.237500X0.300000X0.237500X-0.300000X0.237500X0*%
G04 #@! TD*
G04 #@! TA.AperFunction,ComponentPad*
%ADD21R,2.000000X0.900000*%
G04 #@! TD*
G04 #@! TA.AperFunction,ComponentPad*
%ADD22RoundRect,1.025000X-1.025000X1.025000X-1.025000X-1.025000X1.025000X-1.025000X1.025000X1.025000X0*%
G04 #@! TD*
G04 #@! TA.AperFunction,ComponentPad*
%ADD23C,4.100000*%
G04 #@! TD*
G04 #@! TA.AperFunction,ComponentPad*
%ADD24RoundRect,1.025000X1.025000X-1.025000X1.025000X1.025000X-1.025000X1.025000X-1.025000X-1.025000X0*%
G04 #@! TD*
G04 #@! TA.AperFunction,ViaPad*
%ADD25C,0.800000*%
G04 #@! TD*
G04 #@! TA.AperFunction,Conductor*
%ADD26C,1.000000*%
G04 #@! TD*
G04 #@! TA.AperFunction,Conductor*
%ADD27C,0.300000*%
G04 #@! TD*
G04 #@! TA.AperFunction,Conductor*
%ADD28C,0.200000*%
G04 #@! TD*
G04 APERTURE END LIST*
D10*
X146025000Y-118950000D03*
X146025000Y-120850000D03*
X148300000Y-119900000D03*
D11*
X145799999Y-111151900D03*
X144300000Y-111151900D03*
X141300000Y-111151900D03*
X139800001Y-111151900D03*
D12*
X148699998Y-110451899D03*
X136900002Y-110451899D03*
X148699998Y-108351900D03*
X136900002Y-108351900D03*
D13*
X145300000Y-109401840D03*
X140300000Y-109401840D03*
D14*
X137525000Y-115583900D03*
X138025000Y-115583900D03*
X138525000Y-115583900D03*
D15*
X138025000Y-114421400D03*
D16*
X143000000Y-117075000D03*
X143000000Y-121525000D03*
D17*
X139937500Y-121550000D03*
X139937500Y-119650000D03*
X137662500Y-120600000D03*
D18*
X142000000Y-114200000D03*
X147000000Y-114200000D03*
D19*
X149300000Y-116800000D03*
X147475000Y-116800000D03*
D20*
X136837500Y-117750000D03*
X138562500Y-117750000D03*
D21*
X126650000Y-107250000D03*
X126650000Y-120750000D03*
D22*
X132650000Y-117600000D03*
D23*
X132650000Y-110400000D03*
D21*
X159850000Y-120750000D03*
X159850000Y-107250000D03*
D24*
X153850000Y-117600000D03*
D23*
X153850000Y-110400000D03*
D25*
X149300000Y-115400000D03*
X138000000Y-113500000D03*
X136800000Y-118800000D03*
X138900000Y-110400000D03*
X139400000Y-120700000D03*
X138900000Y-116500000D03*
X143500000Y-110300000D03*
X146800000Y-111400000D03*
X140900000Y-120000000D03*
D26*
X138025000Y-114421400D02*
X138025000Y-113525000D01*
X136800000Y-118800000D02*
X136800000Y-117787500D01*
X136800000Y-117787500D02*
X136837500Y-117750000D01*
X149300000Y-115400000D02*
X149300000Y-116800000D01*
X138025000Y-113525000D02*
X138000000Y-113500000D01*
D27*
X139651900Y-111151900D02*
X139800001Y-111151900D01*
X138900000Y-110400000D02*
X139651900Y-111151900D01*
X138025000Y-115583900D02*
X138025000Y-116375000D01*
X140000000Y-117750000D02*
X143000000Y-120750000D01*
X138025000Y-116375000D02*
X138600000Y-116950000D01*
X138562500Y-117750000D02*
X140000000Y-117750000D01*
X139400000Y-120700000D02*
X139400000Y-121012500D01*
X138600000Y-117712500D02*
X138562500Y-117750000D01*
X139962500Y-121525000D02*
X143000000Y-121525000D01*
X138900000Y-116650000D02*
X138600000Y-116950000D01*
X139400000Y-121012500D02*
X139937500Y-121550000D01*
X138600000Y-116950000D02*
X138600000Y-117712500D01*
X143000000Y-120750000D02*
X143000000Y-121525000D01*
X138900000Y-116500000D02*
X138900000Y-116650000D01*
X139937500Y-121550000D02*
X139962500Y-121525000D01*
X143000000Y-115200000D02*
X142000000Y-114200000D01*
X145200000Y-117075000D02*
X143000000Y-117075000D01*
X146025000Y-117900000D02*
X146025000Y-118950000D01*
X146025000Y-117900000D02*
X145200000Y-117075000D01*
X143000000Y-117075000D02*
X143000000Y-115200000D01*
X146200000Y-117200000D02*
X146200000Y-115000000D01*
X146200000Y-115000000D02*
X147000000Y-114200000D01*
X147100000Y-119500000D02*
X147100000Y-118100000D01*
X146800000Y-116800000D02*
X147475000Y-116800000D01*
X146300000Y-117300000D02*
X146800000Y-116800000D01*
X146025000Y-120575000D02*
X147100000Y-119500000D01*
X146025000Y-120850000D02*
X146025000Y-120575000D01*
X147100000Y-118100000D02*
X146300000Y-117300000D01*
X146300000Y-117300000D02*
X146200000Y-117200000D01*
X143500000Y-110300000D02*
X143500000Y-110351900D01*
X143500000Y-110351900D02*
X144300000Y-111151900D01*
X146551900Y-111151900D02*
X146800000Y-111400000D01*
X145799999Y-111151900D02*
X146551900Y-111151900D01*
X140900000Y-120000000D02*
X140550000Y-119650000D01*
D28*
X137525000Y-116775000D02*
X137525000Y-115583900D01*
X137693784Y-116943784D02*
X137525000Y-116775000D01*
D27*
X139937500Y-119650000D02*
X139087568Y-119650000D01*
D28*
X137693784Y-118256216D02*
X137693784Y-116943784D01*
X139087568Y-119650000D02*
X137693784Y-118256216D01*
D27*
X140550000Y-119650000D02*
X139937500Y-119650000D01*
X139800000Y-114308900D02*
X138525000Y-115583900D01*
X139800000Y-113200000D02*
X139800000Y-114308900D01*
X141300000Y-111151900D02*
X141300000Y-111700000D01*
X141300000Y-111700000D02*
X139800000Y-113200000D01*
G04 #@! TA.AperFunction,Conductor*
G36*
X138959191Y-105018907D02*
G01*
X138995155Y-105068407D01*
X139000000Y-105099000D01*
X139000000Y-109695318D01*
X138981093Y-109753509D01*
X138931593Y-109789473D01*
X138906431Y-109793457D01*
X138906433Y-109793471D01*
X138905930Y-109793537D01*
X138901000Y-109794318D01*
X138899999Y-109794318D01*
X138743241Y-109814955D01*
X138743233Y-109814957D01*
X138597161Y-109875462D01*
X138597160Y-109875462D01*
X138471723Y-109971713D01*
X138471713Y-109971723D01*
X138375462Y-110097160D01*
X138375462Y-110097161D01*
X138314957Y-110243233D01*
X138314955Y-110243241D01*
X138294318Y-110399999D01*
X138294318Y-110400000D01*
X138314955Y-110556758D01*
X138314957Y-110556766D01*
X138375462Y-110702838D01*
X138375462Y-110702839D01*
X138375464Y-110702841D01*
X138471718Y-110828282D01*
X138471722Y-110828285D01*
X138471723Y-110828286D01*
X138597157Y-110924535D01*
X138597158Y-110924535D01*
X138597159Y-110924536D01*
X138613350Y-110931242D01*
X138637621Y-110941296D01*
X138660009Y-110954222D01*
X138665828Y-110958688D01*
X138944793Y-111096282D01*
X138988617Y-111138979D01*
X139000000Y-111185069D01*
X139000000Y-113890992D01*
X138981093Y-113949183D01*
X138931593Y-113985147D01*
X138870407Y-113985147D01*
X138821345Y-113949780D01*
X138744845Y-113846126D01*
X138725503Y-113788078D01*
X138725500Y-113787338D01*
X138725500Y-113456008D01*
X138725499Y-113456004D01*
X138698580Y-113320672D01*
X138645775Y-113193189D01*
X138645774Y-113193187D01*
X138645771Y-113193182D01*
X138569114Y-113078458D01*
X138540156Y-113049500D01*
X138540156Y-113049499D01*
X138540155Y-113049499D01*
X138446548Y-112955891D01*
X138446547Y-112955890D01*
X138446543Y-112955886D01*
X138331811Y-112879225D01*
X138331812Y-112879225D01*
X138331810Y-112879224D01*
X138204328Y-112826420D01*
X138068996Y-112799500D01*
X138068994Y-112799500D01*
X137931006Y-112799500D01*
X137931003Y-112799500D01*
X137795672Y-112826420D01*
X137795670Y-112826420D01*
X137668191Y-112879223D01*
X137553460Y-112955883D01*
X137455883Y-113053460D01*
X137379223Y-113168191D01*
X137326420Y-113295670D01*
X137326420Y-113295672D01*
X137299500Y-113431003D01*
X137299500Y-113568996D01*
X137322598Y-113685113D01*
X137324500Y-113704427D01*
X137324500Y-113787338D01*
X137305593Y-113845529D01*
X137305155Y-113846126D01*
X137222207Y-113958516D01*
X137177355Y-114086696D01*
X137177353Y-114086705D01*
X137174500Y-114117125D01*
X137174500Y-114725674D01*
X137177353Y-114756094D01*
X137177355Y-114756103D01*
X137222206Y-114884281D01*
X137272384Y-114952270D01*
X137291725Y-115010318D01*
X137275044Y-115066058D01*
X137214762Y-115156277D01*
X137214759Y-115156286D01*
X137199501Y-115232988D01*
X137199500Y-115233000D01*
X137199500Y-115859873D01*
X137197171Y-115879082D01*
X137197514Y-115879145D01*
X137196966Y-115882170D01*
X137196293Y-115887906D01*
X137196695Y-115938999D01*
X137196695Y-115939006D01*
X137196696Y-115939009D01*
X137200530Y-115967761D01*
X137219949Y-116113406D01*
X137219950Y-116113409D01*
X137220201Y-116114232D01*
X137220356Y-116115277D01*
X137220808Y-116117352D01*
X137220670Y-116117381D01*
X137224500Y-116143088D01*
X137224500Y-116814564D01*
X137244978Y-116890988D01*
X137258267Y-116914004D01*
X137258268Y-116914007D01*
X137265193Y-116926002D01*
X137277913Y-116985850D01*
X137253026Y-117041745D01*
X137200037Y-117072337D01*
X137179456Y-117074500D01*
X137041928Y-117074500D01*
X137022614Y-117072598D01*
X136906496Y-117049500D01*
X136906494Y-117049500D01*
X136768506Y-117049500D01*
X136768503Y-117049500D01*
X136652386Y-117072598D01*
X136633072Y-117074500D01*
X136484733Y-117074500D01*
X136455155Y-117077274D01*
X136455147Y-117077276D01*
X136330523Y-117120884D01*
X136224293Y-117199285D01*
X136224285Y-117199293D01*
X136145884Y-117305523D01*
X136102276Y-117430147D01*
X136102274Y-117430155D01*
X136099500Y-117459733D01*
X136099500Y-118868995D01*
X136126420Y-119004327D01*
X136126420Y-119004329D01*
X136179222Y-119131806D01*
X136179228Y-119131817D01*
X136255885Y-119246541D01*
X136353458Y-119344114D01*
X136468182Y-119420771D01*
X136468193Y-119420777D01*
X136502019Y-119434788D01*
X136595672Y-119473580D01*
X136731007Y-119500500D01*
X136731008Y-119500500D01*
X136868992Y-119500500D01*
X136868993Y-119500500D01*
X137004328Y-119473580D01*
X137131811Y-119420775D01*
X137246542Y-119344114D01*
X137344114Y-119246542D01*
X137420775Y-119131811D01*
X137473580Y-119004328D01*
X137500500Y-118868993D01*
X137500500Y-118726911D01*
X137519407Y-118668720D01*
X137568907Y-118632756D01*
X137630093Y-118632756D01*
X137669504Y-118656907D01*
X138728679Y-119716082D01*
X138754301Y-119760461D01*
X138760954Y-119785288D01*
X138792717Y-119840303D01*
X138807099Y-119865212D01*
X138872356Y-119930469D01*
X138872358Y-119930470D01*
X138950501Y-119975587D01*
X138991441Y-120021057D01*
X139000000Y-120061323D01*
X139000000Y-120202429D01*
X138981093Y-120260620D01*
X138972630Y-120270528D01*
X138875462Y-120397160D01*
X138875462Y-120397161D01*
X138814957Y-120543233D01*
X138814955Y-120543241D01*
X138794318Y-120699999D01*
X138794318Y-120700000D01*
X138814955Y-120856758D01*
X138814957Y-120856766D01*
X138875462Y-121002838D01*
X138875462Y-121002839D01*
X138975668Y-121133430D01*
X138974462Y-121134354D01*
X138998781Y-121182084D01*
X139000000Y-121197571D01*
X139000000Y-122901000D01*
X138981093Y-122959191D01*
X138931593Y-122995155D01*
X138901000Y-123000000D01*
X129099000Y-123000000D01*
X129040809Y-122981093D01*
X129004845Y-122931593D01*
X129000000Y-122901000D01*
X129000000Y-118687926D01*
X130399500Y-118687926D01*
X130409696Y-118817487D01*
X130463594Y-119031389D01*
X130463597Y-119031396D01*
X130554819Y-119232230D01*
X130554824Y-119232240D01*
X130680446Y-119413563D01*
X130680449Y-119413567D01*
X130836433Y-119569551D01*
X130836436Y-119569553D01*
X131017759Y-119695175D01*
X131017769Y-119695180D01*
X131063787Y-119716082D01*
X131218607Y-119786404D01*
X131218608Y-119786404D01*
X131218610Y-119786405D01*
X131325561Y-119813354D01*
X131432515Y-119840304D01*
X131562067Y-119850500D01*
X133737932Y-119850499D01*
X133867485Y-119840304D01*
X134081393Y-119786404D01*
X134282239Y-119695176D01*
X134463567Y-119569551D01*
X134619551Y-119413567D01*
X134745176Y-119232239D01*
X134836404Y-119031393D01*
X134890304Y-118817485D01*
X134900500Y-118687933D01*
X134900499Y-116512068D01*
X134890304Y-116382515D01*
X134863354Y-116275561D01*
X134836405Y-116168610D01*
X134836402Y-116168603D01*
X134834626Y-116164694D01*
X134745176Y-115967761D01*
X134725256Y-115939009D01*
X134619553Y-115786436D01*
X134619551Y-115786433D01*
X134463567Y-115630449D01*
X134463563Y-115630446D01*
X134282240Y-115504824D01*
X134282230Y-115504819D01*
X134081396Y-115413597D01*
X134081389Y-115413594D01*
X133867487Y-115359696D01*
X133838695Y-115357430D01*
X133737933Y-115349500D01*
X133737926Y-115349500D01*
X131562073Y-115349500D01*
X131432512Y-115359696D01*
X131218610Y-115413594D01*
X131218603Y-115413597D01*
X131017769Y-115504819D01*
X131017759Y-115504824D01*
X130836436Y-115630446D01*
X130680446Y-115786436D01*
X130554824Y-115967759D01*
X130554819Y-115967769D01*
X130463597Y-116168603D01*
X130463594Y-116168610D01*
X130409696Y-116382512D01*
X130399500Y-116512073D01*
X130399500Y-118687926D01*
X129000000Y-118687926D01*
X129000000Y-110878045D01*
X136204202Y-110878045D01*
X136204203Y-110878057D01*
X136215834Y-110936526D01*
X136215836Y-110936532D01*
X136260147Y-111002847D01*
X136260150Y-111002851D01*
X136326471Y-111047166D01*
X136370933Y-111056010D01*
X136384943Y-111058797D01*
X136384948Y-111058797D01*
X136384954Y-111058799D01*
X136384955Y-111058799D01*
X137415049Y-111058799D01*
X137415050Y-111058799D01*
X137473533Y-111047166D01*
X137539854Y-111002851D01*
X137584169Y-110936530D01*
X137595802Y-110878047D01*
X137595802Y-110025751D01*
X137584169Y-109967268D01*
X137539854Y-109900947D01*
X137501714Y-109875462D01*
X137473535Y-109856633D01*
X137473533Y-109856632D01*
X137473530Y-109856631D01*
X137473529Y-109856631D01*
X137415060Y-109845000D01*
X137415050Y-109844999D01*
X136384954Y-109844999D01*
X136384953Y-109844999D01*
X136384943Y-109845000D01*
X136326474Y-109856631D01*
X136326468Y-109856633D01*
X136260153Y-109900944D01*
X136260147Y-109900950D01*
X136215836Y-109967265D01*
X136215834Y-109967271D01*
X136204203Y-110025740D01*
X136204202Y-110025752D01*
X136204202Y-110878045D01*
X129000000Y-110878045D01*
X129000000Y-108778046D01*
X136204202Y-108778046D01*
X136204203Y-108778058D01*
X136215834Y-108836527D01*
X136215835Y-108836531D01*
X136260150Y-108902852D01*
X136326471Y-108947167D01*
X136370933Y-108956011D01*
X136384943Y-108958798D01*
X136384948Y-108958798D01*
X136384954Y-108958800D01*
X136384955Y-108958800D01*
X137415049Y-108958800D01*
X137415050Y-108958800D01*
X137473533Y-108947167D01*
X137539854Y-108902852D01*
X137584169Y-108836531D01*
X137595802Y-108778048D01*
X137595802Y-107925752D01*
X137584169Y-107867269D01*
X137539854Y-107800948D01*
X137539850Y-107800945D01*
X137473535Y-107756634D01*
X137473533Y-107756633D01*
X137473530Y-107756632D01*
X137473529Y-107756632D01*
X137415060Y-107745001D01*
X137415050Y-107745000D01*
X136384954Y-107745000D01*
X136384953Y-107745000D01*
X136384943Y-107745001D01*
X136326474Y-107756632D01*
X136326468Y-107756634D01*
X136260153Y-107800945D01*
X136260147Y-107800951D01*
X136215836Y-107867266D01*
X136215834Y-107867272D01*
X136204203Y-107925741D01*
X136204202Y-107925753D01*
X136204202Y-108778046D01*
X129000000Y-108778046D01*
X129000000Y-105099000D01*
X129018907Y-105040809D01*
X129068407Y-105004845D01*
X129099000Y-105000000D01*
X138901000Y-105000000D01*
X138959191Y-105018907D01*
G37*
G04 #@! TD.AperFunction*
G04 #@! TA.AperFunction,Conductor*
G36*
X157959191Y-105018907D02*
G01*
X157995155Y-105068407D01*
X158000000Y-105099000D01*
X158000000Y-122901000D01*
X157981093Y-122959191D01*
X157931593Y-122995155D01*
X157901000Y-123000000D01*
X147099000Y-123000000D01*
X147040809Y-122981093D01*
X147004845Y-122931593D01*
X147000000Y-122901000D01*
X147000000Y-120136689D01*
X147018907Y-120078498D01*
X147028990Y-120066691D01*
X147380470Y-119715212D01*
X147426614Y-119635288D01*
X147450500Y-119546143D01*
X147450500Y-119453856D01*
X147450500Y-118687926D01*
X151599500Y-118687926D01*
X151609696Y-118817487D01*
X151663594Y-119031389D01*
X151663597Y-119031396D01*
X151754819Y-119232230D01*
X151754824Y-119232240D01*
X151839747Y-119354818D01*
X151880449Y-119413567D01*
X152036433Y-119569551D01*
X152036436Y-119569553D01*
X152217759Y-119695175D01*
X152217769Y-119695180D01*
X152351658Y-119755994D01*
X152418607Y-119786404D01*
X152418608Y-119786404D01*
X152418610Y-119786405D01*
X152525561Y-119813354D01*
X152632515Y-119840304D01*
X152762067Y-119850500D01*
X154937932Y-119850499D01*
X155067485Y-119840304D01*
X155281393Y-119786404D01*
X155482239Y-119695176D01*
X155663567Y-119569551D01*
X155819551Y-119413567D01*
X155945176Y-119232239D01*
X156036404Y-119031393D01*
X156090304Y-118817485D01*
X156100500Y-118687933D01*
X156100499Y-116512068D01*
X156090304Y-116382515D01*
X156036404Y-116168607D01*
X155945176Y-115967761D01*
X155819551Y-115786433D01*
X155663567Y-115630449D01*
X155663563Y-115630446D01*
X155482240Y-115504824D01*
X155482230Y-115504819D01*
X155281396Y-115413597D01*
X155281389Y-115413594D01*
X155067487Y-115359696D01*
X155038695Y-115357430D01*
X154937933Y-115349500D01*
X154937926Y-115349500D01*
X152762073Y-115349500D01*
X152632512Y-115359696D01*
X152418610Y-115413594D01*
X152418603Y-115413597D01*
X152217769Y-115504819D01*
X152217759Y-115504824D01*
X152036436Y-115630446D01*
X151880446Y-115786436D01*
X151754824Y-115967759D01*
X151754819Y-115967769D01*
X151663597Y-116168603D01*
X151663594Y-116168610D01*
X151609696Y-116382512D01*
X151609696Y-116382515D01*
X151599684Y-116509738D01*
X151599500Y-116512073D01*
X151599500Y-118687926D01*
X147450500Y-118687926D01*
X147450500Y-118053856D01*
X147426614Y-117964712D01*
X147380470Y-117884788D01*
X147380467Y-117884785D01*
X147140186Y-117644503D01*
X147112409Y-117589987D01*
X147121980Y-117529555D01*
X147165245Y-117486290D01*
X147210190Y-117475500D01*
X147777762Y-117475500D01*
X147777765Y-117475499D01*
X147807349Y-117472725D01*
X147931975Y-117429116D01*
X148038211Y-117350711D01*
X148116616Y-117244475D01*
X148160225Y-117119849D01*
X148163000Y-117090256D01*
X148163000Y-116509744D01*
X148163000Y-116509738D01*
X148162999Y-116509733D01*
X148160225Y-116480155D01*
X148160225Y-116480151D01*
X148116616Y-116355525D01*
X148038211Y-116249289D01*
X148038206Y-116249285D01*
X147931976Y-116170884D01*
X147807352Y-116127276D01*
X147807351Y-116127275D01*
X147807349Y-116127275D01*
X147807347Y-116127274D01*
X147807344Y-116127274D01*
X147777766Y-116124500D01*
X147777756Y-116124500D01*
X147172244Y-116124500D01*
X147172233Y-116124500D01*
X147142655Y-116127274D01*
X147142648Y-116127275D01*
X147131696Y-116131108D01*
X147070526Y-116132480D01*
X147020232Y-116097635D01*
X147000025Y-116039883D01*
X147000000Y-116037663D01*
X147000000Y-115830802D01*
X147018907Y-115772611D01*
X147040676Y-115750807D01*
X147632320Y-115319500D01*
X147690480Y-115300500D01*
X148500500Y-115300500D01*
X148558691Y-115319407D01*
X148594655Y-115368907D01*
X148599500Y-115399500D01*
X148599500Y-116868995D01*
X148610098Y-116922272D01*
X148612000Y-116941586D01*
X148612000Y-117090266D01*
X148614774Y-117119844D01*
X148614776Y-117119852D01*
X148658384Y-117244476D01*
X148665307Y-117253856D01*
X148736789Y-117350711D01*
X148736792Y-117350713D01*
X148736793Y-117350714D01*
X148843023Y-117429115D01*
X148843024Y-117429115D01*
X148843025Y-117429116D01*
X148967651Y-117472725D01*
X148994941Y-117475284D01*
X148997233Y-117475499D01*
X148997238Y-117475500D01*
X148997244Y-117475500D01*
X149095572Y-117475500D01*
X149114885Y-117477401D01*
X149231007Y-117500500D01*
X149231008Y-117500500D01*
X149368992Y-117500500D01*
X149368993Y-117500500D01*
X149485114Y-117477401D01*
X149504428Y-117475500D01*
X149602762Y-117475500D01*
X149602765Y-117475499D01*
X149632349Y-117472725D01*
X149756975Y-117429116D01*
X149863211Y-117350711D01*
X149941616Y-117244475D01*
X149985225Y-117119849D01*
X149988000Y-117090256D01*
X149988000Y-116941586D01*
X149989902Y-116922272D01*
X150000500Y-116868993D01*
X150000500Y-115331007D01*
X149973580Y-115195672D01*
X149920775Y-115068189D01*
X149920774Y-115068187D01*
X149920771Y-115068182D01*
X149844114Y-114953458D01*
X149746541Y-114855885D01*
X149631817Y-114779228D01*
X149631806Y-114779222D01*
X149504328Y-114726420D01*
X149368995Y-114699500D01*
X149368993Y-114699500D01*
X149231007Y-114699500D01*
X149231004Y-114699500D01*
X149095673Y-114726419D01*
X149087382Y-114729854D01*
X149026385Y-114734652D01*
X148974217Y-114702680D01*
X148950805Y-114646151D01*
X148950500Y-114638388D01*
X148950500Y-113495727D01*
X148950499Y-113495725D01*
X148947646Y-113465305D01*
X148947646Y-113465301D01*
X148902793Y-113337118D01*
X148822150Y-113227850D01*
X148822146Y-113227847D01*
X148822144Y-113227845D01*
X148712883Y-113147207D01*
X148584703Y-113102355D01*
X148584694Y-113102353D01*
X148554274Y-113099500D01*
X148554266Y-113099500D01*
X147099000Y-113099500D01*
X147040809Y-113080593D01*
X147004845Y-113031093D01*
X147000000Y-113000500D01*
X147000000Y-112033283D01*
X147018907Y-111975092D01*
X147061110Y-111941821D01*
X147102841Y-111924536D01*
X147228282Y-111828282D01*
X147324536Y-111702841D01*
X147385044Y-111556762D01*
X147405682Y-111400000D01*
X147385044Y-111243238D01*
X147324537Y-111097161D01*
X147324537Y-111097160D01*
X147228286Y-110971723D01*
X147228285Y-110971722D01*
X147228282Y-110971718D01*
X147228277Y-110971714D01*
X147228276Y-110971713D01*
X147106206Y-110878045D01*
X148004198Y-110878045D01*
X148004199Y-110878057D01*
X148015830Y-110936526D01*
X148015832Y-110936532D01*
X148060143Y-111002847D01*
X148060146Y-111002851D01*
X148126467Y-111047166D01*
X148170929Y-111056010D01*
X148184939Y-111058797D01*
X148184944Y-111058797D01*
X148184950Y-111058799D01*
X148184951Y-111058799D01*
X149215045Y-111058799D01*
X149215046Y-111058799D01*
X149273529Y-111047166D01*
X149339850Y-111002851D01*
X149384165Y-110936530D01*
X149395798Y-110878047D01*
X149395798Y-110025751D01*
X149384165Y-109967268D01*
X149339850Y-109900947D01*
X149339846Y-109900944D01*
X149273531Y-109856633D01*
X149273529Y-109856632D01*
X149273526Y-109856631D01*
X149273525Y-109856631D01*
X149215056Y-109845000D01*
X149215046Y-109844999D01*
X148184950Y-109844999D01*
X148184949Y-109844999D01*
X148184939Y-109845000D01*
X148126470Y-109856631D01*
X148126464Y-109856633D01*
X148060149Y-109900944D01*
X148060143Y-109900950D01*
X148015832Y-109967265D01*
X148015830Y-109967271D01*
X148004199Y-110025740D01*
X148004198Y-110025752D01*
X148004198Y-110878045D01*
X147106206Y-110878045D01*
X147102842Y-110875464D01*
X147102836Y-110875461D01*
X147061113Y-110858178D01*
X147014588Y-110818441D01*
X147000000Y-110766715D01*
X147000000Y-108778046D01*
X148004198Y-108778046D01*
X148004199Y-108778058D01*
X148015830Y-108836527D01*
X148015831Y-108836531D01*
X148060146Y-108902852D01*
X148126467Y-108947167D01*
X148170929Y-108956011D01*
X148184939Y-108958798D01*
X148184944Y-108958798D01*
X148184950Y-108958800D01*
X148184951Y-108958800D01*
X149215045Y-108958800D01*
X149215046Y-108958800D01*
X149273529Y-108947167D01*
X149339850Y-108902852D01*
X149384165Y-108836531D01*
X149395798Y-108778048D01*
X149395798Y-107925752D01*
X149384165Y-107867269D01*
X149339850Y-107800948D01*
X149339846Y-107800945D01*
X149273531Y-107756634D01*
X149273529Y-107756633D01*
X149273526Y-107756632D01*
X149273525Y-107756632D01*
X149215056Y-107745001D01*
X149215046Y-107745000D01*
X148184950Y-107745000D01*
X148184949Y-107745000D01*
X148184939Y-107745001D01*
X148126470Y-107756632D01*
X148126464Y-107756634D01*
X148060149Y-107800945D01*
X148060143Y-107800951D01*
X148015832Y-107867266D01*
X148015830Y-107867272D01*
X148004199Y-107925741D01*
X148004198Y-107925753D01*
X148004198Y-108778046D01*
X147000000Y-108778046D01*
X147000000Y-105099000D01*
X147018907Y-105040809D01*
X147068407Y-105004845D01*
X147099000Y-105000000D01*
X157901000Y-105000000D01*
X157959191Y-105018907D01*
G37*
G04 #@! TD.AperFunction*
G04 #@! TA.AperFunction,Conductor*
G36*
X133733723Y-115555304D02*
G01*
X133825767Y-115562548D01*
X133842176Y-115565241D01*
X134004615Y-115606171D01*
X134021345Y-115612025D01*
X134172293Y-115680589D01*
X134187719Y-115689342D01*
X134324015Y-115783767D01*
X134337621Y-115795125D01*
X134454869Y-115912372D01*
X134466238Y-115925991D01*
X134560647Y-116062261D01*
X134569402Y-116077689D01*
X134637965Y-116228638D01*
X134643825Y-116245386D01*
X134684755Y-116407816D01*
X134687451Y-116424237D01*
X134693413Y-116500000D01*
X134694694Y-116516270D01*
X134694999Y-116524037D01*
X134694999Y-118675961D01*
X134694694Y-118683728D01*
X134687451Y-118775761D01*
X134684755Y-118792184D01*
X134643828Y-118954602D01*
X134637967Y-118971353D01*
X134569404Y-119122303D01*
X134560644Y-119137741D01*
X134466238Y-119274007D01*
X134454864Y-119287632D01*
X134337632Y-119404864D01*
X134324007Y-119416238D01*
X134187741Y-119510644D01*
X134172303Y-119519404D01*
X134021353Y-119587967D01*
X134004602Y-119593828D01*
X133842184Y-119634755D01*
X133825761Y-119637451D01*
X133733729Y-119644694D01*
X133725962Y-119644999D01*
X131574037Y-119644999D01*
X131566270Y-119644694D01*
X131474237Y-119637451D01*
X131457814Y-119634755D01*
X131295396Y-119593829D01*
X131278648Y-119587969D01*
X131127699Y-119519406D01*
X131112272Y-119510652D01*
X130975983Y-119416231D01*
X130962375Y-119404871D01*
X130845130Y-119287627D01*
X130833762Y-119274009D01*
X130811860Y-119242395D01*
X130739348Y-119137730D01*
X130730591Y-119122297D01*
X130694383Y-119042583D01*
X130662033Y-118971362D01*
X130656172Y-118954611D01*
X130615244Y-118792184D01*
X130612548Y-118775761D01*
X130605305Y-118683722D01*
X130605000Y-118675955D01*
X130605000Y-116524042D01*
X130605305Y-116516276D01*
X130612244Y-116428094D01*
X130612548Y-116424230D01*
X130615242Y-116407816D01*
X130656172Y-116245378D01*
X130662024Y-116228656D01*
X130730591Y-116077699D01*
X130739341Y-116062279D01*
X130833766Y-115925983D01*
X130845129Y-115912371D01*
X130962372Y-115795128D01*
X130975985Y-115783764D01*
X131112271Y-115689345D01*
X131127691Y-115680595D01*
X131278639Y-115612032D01*
X131295381Y-115606173D01*
X131457813Y-115565243D01*
X131474236Y-115562548D01*
X131566275Y-115555305D01*
X131574042Y-115555000D01*
X133725957Y-115555000D01*
X133733723Y-115555304D01*
G37*
G04 #@! TD.AperFunction*
G04 #@! TA.AperFunction,Conductor*
G36*
X154933723Y-115555304D02*
G01*
X155025767Y-115562548D01*
X155042176Y-115565241D01*
X155204615Y-115606171D01*
X155221345Y-115612025D01*
X155372293Y-115680589D01*
X155387719Y-115689342D01*
X155524015Y-115783767D01*
X155537621Y-115795125D01*
X155654869Y-115912372D01*
X155666238Y-115925991D01*
X155760644Y-116062257D01*
X155769404Y-116077695D01*
X155837967Y-116228645D01*
X155843828Y-116245396D01*
X155884755Y-116407814D01*
X155887451Y-116424237D01*
X155894694Y-116516270D01*
X155894999Y-116524037D01*
X155894999Y-118675961D01*
X155894694Y-118683728D01*
X155887451Y-118775761D01*
X155884755Y-118792184D01*
X155843828Y-118954602D01*
X155837967Y-118971353D01*
X155769404Y-119122303D01*
X155760644Y-119137741D01*
X155666238Y-119274007D01*
X155654864Y-119287632D01*
X155537632Y-119404864D01*
X155524007Y-119416238D01*
X155387741Y-119510644D01*
X155372303Y-119519404D01*
X155221353Y-119587967D01*
X155204602Y-119593828D01*
X155042184Y-119634755D01*
X155025761Y-119637451D01*
X154933729Y-119644694D01*
X154925962Y-119644999D01*
X152774037Y-119644999D01*
X152766270Y-119644694D01*
X152674237Y-119637451D01*
X152657814Y-119634755D01*
X152495396Y-119593829D01*
X152478648Y-119587969D01*
X152327699Y-119519406D01*
X152312272Y-119510652D01*
X152175983Y-119416231D01*
X152162375Y-119404871D01*
X152045130Y-119287627D01*
X152033762Y-119274009D01*
X152011860Y-119242395D01*
X151939348Y-119137730D01*
X151930591Y-119122297D01*
X151894383Y-119042583D01*
X151862033Y-118971362D01*
X151856172Y-118954611D01*
X151815244Y-118792184D01*
X151812548Y-118775761D01*
X151805305Y-118683722D01*
X151805000Y-118675955D01*
X151805000Y-116524043D01*
X151805305Y-116516277D01*
X151809567Y-116462116D01*
X151812548Y-116424232D01*
X151815244Y-116407811D01*
X151828906Y-116353591D01*
X151856169Y-116245396D01*
X151862024Y-116228658D01*
X151930594Y-116077695D01*
X151939347Y-116062271D01*
X152033766Y-115925983D01*
X152045129Y-115912371D01*
X152162372Y-115795128D01*
X152175985Y-115783764D01*
X152312271Y-115689345D01*
X152327691Y-115680595D01*
X152478639Y-115612032D01*
X152495381Y-115606173D01*
X152657813Y-115565243D01*
X152674236Y-115562548D01*
X152766275Y-115555305D01*
X152774042Y-115555000D01*
X154925957Y-115555000D01*
X154933723Y-115555304D01*
G37*
G04 #@! TD.AperFunction*
G04 #@! TA.AperFunction,Conductor*
G36*
X136895816Y-117256901D02*
G01*
X136982522Y-117274149D01*
X137002474Y-117277109D01*
X137021788Y-117279011D01*
X137041928Y-117280000D01*
X137041945Y-117280000D01*
X137179452Y-117280000D01*
X137179456Y-117280000D01*
X137200935Y-117278874D01*
X137221516Y-117276711D01*
X137263695Y-117263007D01*
X137324877Y-117263008D01*
X137374377Y-117298972D01*
X137393284Y-117357162D01*
X137393284Y-118295780D01*
X137413762Y-118372204D01*
X137413765Y-118372210D01*
X137417974Y-118379501D01*
X137430694Y-118439349D01*
X137405807Y-118495244D01*
X137397376Y-118503551D01*
X137370872Y-118526707D01*
X137323964Y-118605218D01*
X137323962Y-118605221D01*
X137305056Y-118663410D01*
X137295000Y-118726907D01*
X137295000Y-118839000D01*
X137293097Y-118858315D01*
X137277877Y-118934825D01*
X137272244Y-118953396D01*
X137242395Y-119025458D01*
X137233247Y-119042573D01*
X137189907Y-119107436D01*
X137177595Y-119122439D01*
X137122439Y-119177595D01*
X137107436Y-119189907D01*
X137042573Y-119233247D01*
X137025458Y-119242395D01*
X136953396Y-119272244D01*
X136934826Y-119277877D01*
X136858318Y-119293097D01*
X136839002Y-119295000D01*
X136760998Y-119295000D01*
X136741684Y-119293098D01*
X136665180Y-119277880D01*
X136646608Y-119272246D01*
X136574537Y-119242393D01*
X136557422Y-119233245D01*
X136492564Y-119189909D01*
X136477561Y-119177597D01*
X136422400Y-119122436D01*
X136410089Y-119107434D01*
X136404224Y-119098656D01*
X136366753Y-119042578D01*
X136357610Y-119025472D01*
X136327751Y-118953387D01*
X136322120Y-118934825D01*
X136306902Y-118858315D01*
X136305000Y-118839002D01*
X136305000Y-117489817D01*
X136310555Y-117457120D01*
X136324693Y-117416715D01*
X136338482Y-117390625D01*
X136362375Y-117358250D01*
X136383241Y-117337383D01*
X136415626Y-117313482D01*
X136441714Y-117299693D01*
X136482121Y-117285554D01*
X136514818Y-117280000D01*
X136633055Y-117280000D01*
X136633072Y-117280000D01*
X136653212Y-117279011D01*
X136672526Y-117277109D01*
X136692479Y-117274149D01*
X136779182Y-117256901D01*
X136798497Y-117255000D01*
X136876503Y-117255000D01*
X136895816Y-117256901D01*
G37*
G04 #@! TD.AperFunction*
G04 #@! TA.AperFunction,Conductor*
G36*
X149358317Y-114906902D02*
G01*
X149434821Y-114922119D01*
X149453392Y-114927752D01*
X149525461Y-114957604D01*
X149542569Y-114966747D01*
X149587170Y-114996549D01*
X149607433Y-115010088D01*
X149622436Y-115022400D01*
X149677598Y-115077562D01*
X149689909Y-115092564D01*
X149733240Y-115157412D01*
X149742388Y-115174527D01*
X149746024Y-115183304D01*
X149772245Y-115246607D01*
X149777878Y-115265178D01*
X149793097Y-115341683D01*
X149795000Y-115360998D01*
X149795000Y-116839000D01*
X149793098Y-116858313D01*
X149788351Y-116882174D01*
X149785392Y-116902120D01*
X149783490Y-116921427D01*
X149782500Y-116941590D01*
X149782500Y-117060180D01*
X149776944Y-117092879D01*
X149762805Y-117133284D01*
X149749016Y-117159374D01*
X149725119Y-117191753D01*
X149704253Y-117212619D01*
X149671874Y-117236516D01*
X149645784Y-117250305D01*
X149605382Y-117264443D01*
X149572684Y-117269999D01*
X149504445Y-117269999D01*
X149504427Y-117269999D01*
X149504426Y-117270000D01*
X149500400Y-117270197D01*
X149484295Y-117270988D01*
X149484279Y-117270989D01*
X149465000Y-117272887D01*
X149464989Y-117272888D01*
X149464985Y-117272889D01*
X149445021Y-117275850D01*
X149429141Y-117279009D01*
X149358314Y-117293098D01*
X149338999Y-117295000D01*
X149261000Y-117295000D01*
X149241687Y-117293098D01*
X149154977Y-117275850D01*
X149154973Y-117275849D01*
X149154971Y-117275849D01*
X149135032Y-117272891D01*
X149135005Y-117272887D01*
X149115713Y-117270989D01*
X149115711Y-117270988D01*
X149115702Y-117270988D01*
X149095572Y-117270000D01*
X149095571Y-117270000D01*
X149027318Y-117270000D01*
X148994620Y-117264444D01*
X148990513Y-117263007D01*
X148954217Y-117250306D01*
X148928127Y-117236518D01*
X148928124Y-117236516D01*
X148895749Y-117212622D01*
X148874882Y-117191754D01*
X148850980Y-117159367D01*
X148837192Y-117133278D01*
X148823056Y-117092880D01*
X148817500Y-117060182D01*
X148817500Y-116941602D01*
X148817500Y-116941586D01*
X148816511Y-116921446D01*
X148814609Y-116902132D01*
X148811649Y-116882179D01*
X148806902Y-116858313D01*
X148805000Y-116839000D01*
X148805000Y-115399506D01*
X148805000Y-115399500D01*
X148802470Y-115367356D01*
X148797625Y-115336763D01*
X148797616Y-115336706D01*
X148796853Y-115332218D01*
X148796852Y-115332213D01*
X148781702Y-115296767D01*
X148776217Y-115235828D01*
X148807599Y-115183304D01*
X148813931Y-115178215D01*
X148822150Y-115172150D01*
X148902793Y-115062882D01*
X148923692Y-115003155D01*
X148960757Y-114954476D01*
X149019357Y-114936879D01*
X149031510Y-114937904D01*
X149042500Y-114939519D01*
X149092111Y-114935616D01*
X149103499Y-114934721D01*
X149103501Y-114934720D01*
X149103589Y-114934699D01*
X149104183Y-114934556D01*
X149109683Y-114933236D01*
X149113490Y-114932400D01*
X149135763Y-114927969D01*
X149135764Y-114927970D01*
X149208657Y-114913470D01*
X149241681Y-114906902D01*
X149260994Y-114905000D01*
X149339004Y-114905000D01*
X149358317Y-114906902D01*
G37*
G04 #@! TD.AperFunction*
G04 #@! TA.AperFunction,Conductor*
G36*
X139359499Y-112085609D02*
G01*
X139366170Y-112090067D01*
X139410632Y-112098911D01*
X139424642Y-112101698D01*
X139424647Y-112101698D01*
X139424653Y-112101700D01*
X139424654Y-112101700D01*
X140163610Y-112101700D01*
X140221801Y-112120607D01*
X140257765Y-112170107D01*
X140257765Y-112231293D01*
X140233614Y-112270704D01*
X139519528Y-112984790D01*
X139475335Y-113061335D01*
X139475334Y-113061338D01*
X139473386Y-113064710D01*
X139449500Y-113153857D01*
X139449500Y-114122709D01*
X139430593Y-114180900D01*
X139420504Y-114192713D01*
X138646312Y-114966904D01*
X138591795Y-114994681D01*
X138576309Y-114995900D01*
X138436602Y-114995900D01*
X138436595Y-114995901D01*
X138359884Y-115011159D01*
X138330000Y-115031127D01*
X138271111Y-115047734D01*
X138219999Y-115031126D01*
X138190119Y-115011161D01*
X138190117Y-115011160D01*
X138190114Y-115011159D01*
X138190113Y-115011159D01*
X138113410Y-114995901D01*
X138113402Y-114995900D01*
X138113401Y-114995900D01*
X138113400Y-114995900D01*
X137936602Y-114995900D01*
X137936595Y-114995901D01*
X137859884Y-115011159D01*
X137830000Y-115031127D01*
X137771111Y-115047734D01*
X137719999Y-115031126D01*
X137690119Y-115011161D01*
X137690117Y-115011160D01*
X137690114Y-115011159D01*
X137690113Y-115011159D01*
X137613411Y-114995901D01*
X137613401Y-114995900D01*
X137613400Y-114995900D01*
X137574893Y-114995900D01*
X137516702Y-114976993D01*
X137480969Y-114928195D01*
X137480822Y-114927753D01*
X137467347Y-114887310D01*
X137437729Y-114830240D01*
X137414802Y-114799175D01*
X137401015Y-114773090D01*
X137385554Y-114728901D01*
X137380000Y-114696207D01*
X137380000Y-114146595D01*
X137385555Y-114113899D01*
X137401017Y-114069708D01*
X137414805Y-114043618D01*
X137470500Y-113968156D01*
X137470845Y-113967687D01*
X137471283Y-113967090D01*
X137501036Y-113909031D01*
X137519943Y-113850840D01*
X137529848Y-113788299D01*
X137530000Y-113787341D01*
X137530000Y-113704443D01*
X137530000Y-113704427D01*
X137529011Y-113684287D01*
X137527109Y-113664973D01*
X137524149Y-113645020D01*
X137506902Y-113558315D01*
X137505000Y-113539001D01*
X137505000Y-113460995D01*
X137506902Y-113441681D01*
X137522120Y-113365176D01*
X137527753Y-113346606D01*
X137531684Y-113337116D01*
X137557604Y-113274536D01*
X137566748Y-113257428D01*
X137610094Y-113192556D01*
X137622397Y-113177564D01*
X137677565Y-113122396D01*
X137692556Y-113110094D01*
X137757429Y-113066747D01*
X137774531Y-113057606D01*
X137846613Y-113027749D01*
X137865170Y-113022120D01*
X137914697Y-113012269D01*
X137941681Y-113006902D01*
X137960994Y-113005000D01*
X138039003Y-113005000D01*
X138058316Y-113006901D01*
X138134824Y-113022120D01*
X138153393Y-113027753D01*
X138225462Y-113057605D01*
X138242570Y-113066748D01*
X138295859Y-113102355D01*
X138307437Y-113110091D01*
X138322440Y-113122404D01*
X138402597Y-113202562D01*
X138414906Y-113217559D01*
X138458244Y-113282418D01*
X138467388Y-113299527D01*
X138482959Y-113337118D01*
X138497246Y-113371608D01*
X138502880Y-113390180D01*
X138518097Y-113466680D01*
X138519999Y-113485994D01*
X138520000Y-113787458D01*
X138520002Y-113788299D01*
X138520004Y-113788905D01*
X138520005Y-113788917D01*
X138530539Y-113853033D01*
X138530540Y-113853037D01*
X138530541Y-113853041D01*
X138549883Y-113911089D01*
X138579467Y-113968093D01*
X138579503Y-113968161D01*
X138655998Y-114071808D01*
X138655999Y-114071809D01*
X138656000Y-114071810D01*
X138701176Y-114116482D01*
X138750238Y-114151849D01*
X138750245Y-114151853D01*
X138781237Y-114170293D01*
X138781242Y-114170295D01*
X138781244Y-114170296D01*
X138870407Y-114190647D01*
X138870408Y-114190647D01*
X138931591Y-114190647D01*
X138931593Y-114190647D01*
X138931595Y-114190646D01*
X138931610Y-114190646D01*
X138951445Y-114188859D01*
X138968287Y-114187344D01*
X139052383Y-114151400D01*
X139101883Y-114115436D01*
X139129628Y-114091195D01*
X139176536Y-114012685D01*
X139195443Y-113954494D01*
X139205500Y-113890992D01*
X139205500Y-112167926D01*
X139224407Y-112109735D01*
X139273907Y-112073771D01*
X139335093Y-112073771D01*
X139359499Y-112085609D01*
G37*
G04 #@! TD.AperFunction*
G04 #@! TA.AperFunction,Conductor*
G36*
X139449442Y-110448877D02*
G01*
X139451761Y-110452052D01*
X139795478Y-111142108D01*
X139796099Y-111151041D01*
X139790221Y-111157797D01*
X139790195Y-111157810D01*
X139453568Y-111324439D01*
X139444634Y-111325038D01*
X139438680Y-111320497D01*
X139244573Y-111032764D01*
X139092282Y-110807015D01*
X139090496Y-110798240D01*
X139093706Y-110792201D01*
X139299020Y-110586888D01*
X139432898Y-110449113D01*
X139441120Y-110445569D01*
X139449442Y-110448877D01*
G37*
G04 #@! TD.AperFunction*
G04 #@! TA.AperFunction,Conductor*
G36*
X139268396Y-110251108D02*
G01*
X139274387Y-110256731D01*
X139568041Y-110852099D01*
X139568627Y-110861035D01*
X139565821Y-110865548D01*
X139365548Y-111065821D01*
X139357275Y-111069248D01*
X139352099Y-111068041D01*
X138756731Y-110774387D01*
X138750828Y-110767654D01*
X138751087Y-110759442D01*
X138897437Y-110403802D01*
X138903753Y-110397457D01*
X139259442Y-110251087D01*
X139268396Y-110251108D01*
G37*
G04 #@! TD.AperFunction*
G04 #@! TA.AperFunction,Conductor*
G36*
X138961532Y-117297100D02*
G01*
X139568481Y-117596781D01*
X139574381Y-117603516D01*
X139575000Y-117607271D01*
X139575000Y-117892728D01*
X139571573Y-117901001D01*
X139568480Y-117903219D01*
X138961533Y-118202898D01*
X138952598Y-118203488D01*
X138947472Y-118200024D01*
X138692911Y-117903219D01*
X138568031Y-117757615D01*
X138565247Y-117749106D01*
X138568031Y-117742384D01*
X138947472Y-117299974D01*
X138955459Y-117295926D01*
X138961532Y-117297100D01*
G37*
G04 #@! TD.AperFunction*
G04 #@! TA.AperFunction,Conductor*
G36*
X140891553Y-121372556D02*
G01*
X140898546Y-121378146D01*
X140900000Y-121383794D01*
X140900000Y-121667175D01*
X140896573Y-121675448D01*
X140892769Y-121677988D01*
X140517436Y-121833126D01*
X140508481Y-121833119D01*
X140507776Y-121832799D01*
X139957461Y-121560376D01*
X139951567Y-121553634D01*
X139952166Y-121544699D01*
X139957372Y-121539449D01*
X140503296Y-121263493D01*
X140511824Y-121262697D01*
X140891553Y-121372556D01*
G37*
G04 #@! TD.AperFunction*
G04 #@! TA.AperFunction,Conductor*
G36*
X141459739Y-120896237D02*
G01*
X142974445Y-121514167D01*
X142980811Y-121520465D01*
X142980859Y-121529419D01*
X142974561Y-121535785D01*
X142974445Y-121535833D01*
X141459739Y-122153762D01*
X141450785Y-122153714D01*
X141449315Y-122152971D01*
X140655695Y-121678405D01*
X140650354Y-121671218D01*
X140650000Y-121668363D01*
X140650000Y-121381636D01*
X140653427Y-121373363D01*
X140655692Y-121371596D01*
X141449315Y-120897027D01*
X141458175Y-120895724D01*
X141459739Y-120896237D01*
G37*
G04 #@! TD.AperFunction*
G04 #@! TA.AperFunction,Conductor*
G36*
X138546627Y-116353647D02*
G01*
X138572631Y-116364447D01*
X138893482Y-116497706D01*
X138899807Y-116504043D01*
X138900693Y-116508531D01*
X138900021Y-116887919D01*
X138896579Y-116896186D01*
X138888300Y-116899598D01*
X138887925Y-116899591D01*
X138345099Y-116881211D01*
X138336947Y-116877506D01*
X138333802Y-116869122D01*
X138337221Y-116861246D01*
X138530300Y-116668168D01*
X138530439Y-116364444D01*
X138533870Y-116356175D01*
X138542144Y-116352752D01*
X138546627Y-116353647D01*
G37*
G04 #@! TD.AperFunction*
G04 #@! TA.AperFunction,Conductor*
G36*
X139539264Y-120936500D02*
G01*
X140053138Y-121244824D01*
X140058469Y-121252019D01*
X140057940Y-121259304D01*
X139942390Y-121540526D01*
X139936076Y-121546876D01*
X139927790Y-121547152D01*
X139518663Y-121407551D01*
X139303289Y-121334061D01*
X139296566Y-121328147D01*
X139295472Y-121321434D01*
X139318776Y-121147850D01*
X139322097Y-121141138D01*
X139524975Y-120938260D01*
X139533247Y-120934834D01*
X139539264Y-120936500D01*
G37*
G04 #@! TD.AperFunction*
G04 #@! TA.AperFunction,Conductor*
G36*
X139789536Y-120699981D02*
G01*
X139797802Y-120703422D01*
X139801144Y-120710401D01*
X139861276Y-121256677D01*
X139858775Y-121265275D01*
X139857919Y-121266230D01*
X139657707Y-121466442D01*
X139649434Y-121469869D01*
X139641499Y-121466767D01*
X139126084Y-120991081D01*
X139122328Y-120982952D01*
X139125421Y-120974548D01*
X139125696Y-120974260D01*
X139395855Y-120702748D01*
X139404116Y-120699301D01*
X139789536Y-120699981D01*
G37*
G04 #@! TD.AperFunction*
G04 #@! TA.AperFunction,Conductor*
G36*
X138606610Y-116747803D02*
G01*
X138607968Y-116749434D01*
X138746154Y-116950000D01*
X139001711Y-117320922D01*
X139003583Y-117329679D01*
X139000130Y-117336047D01*
X138570904Y-117743401D01*
X138562544Y-117746610D01*
X138555187Y-117743756D01*
X138102765Y-117351671D01*
X138098758Y-117343663D01*
X138101037Y-117335851D01*
X138387363Y-116950678D01*
X138388468Y-116949399D01*
X138590065Y-116747802D01*
X138598337Y-116744376D01*
X138606610Y-116747803D01*
G37*
G04 #@! TD.AperFunction*
G04 #@! TA.AperFunction,Conductor*
G36*
X142743026Y-120279386D02*
G01*
X143456318Y-120861378D01*
X143464447Y-120868010D01*
X143468690Y-120875895D01*
X143466519Y-120883948D01*
X143007587Y-121516227D01*
X142999954Y-121520909D01*
X142991245Y-121518823D01*
X142117805Y-120883322D01*
X142113133Y-120875684D01*
X142115229Y-120866978D01*
X142116685Y-120865330D01*
X142522703Y-120484835D01*
X142727359Y-120280178D01*
X142735631Y-120276752D01*
X142743026Y-120279386D01*
G37*
G04 #@! TD.AperFunction*
G04 #@! TA.AperFunction,Conductor*
G36*
X142010111Y-114204851D02*
G01*
X143533278Y-115086252D01*
X143538722Y-115093362D01*
X143538077Y-115101204D01*
X143153112Y-115951704D01*
X143146579Y-115957828D01*
X143142453Y-115958579D01*
X142853356Y-115958579D01*
X142847153Y-115956799D01*
X141486464Y-115106002D01*
X141481266Y-115098711D01*
X141482548Y-115090209D01*
X141994134Y-114209101D01*
X142001250Y-114203669D01*
X142010111Y-114204851D01*
G37*
G04 #@! TD.AperFunction*
G04 #@! TA.AperFunction,Conductor*
G36*
X144630370Y-116501485D02*
G01*
X144632249Y-116502610D01*
X145401142Y-117066934D01*
X145405784Y-117074592D01*
X145403651Y-117083289D01*
X145402492Y-117084639D01*
X145200898Y-117286233D01*
X145198933Y-117287814D01*
X144550783Y-117702697D01*
X144541967Y-117704271D01*
X144540051Y-117703674D01*
X143027743Y-117085914D01*
X143021380Y-117079613D01*
X143021336Y-117070659D01*
X143027637Y-117064296D01*
X143028240Y-117064062D01*
X144621429Y-116501011D01*
X144630370Y-116501485D01*
G37*
G04 #@! TD.AperFunction*
G04 #@! TA.AperFunction,Conductor*
G36*
X146176042Y-118353427D02*
G01*
X146178234Y-118356468D01*
X146321235Y-118642471D01*
X146321870Y-118651403D01*
X146319057Y-118655962D01*
X146033287Y-118942685D01*
X146025019Y-118946126D01*
X146016741Y-118942713D01*
X146016713Y-118942685D01*
X145730942Y-118655962D01*
X145727529Y-118647684D01*
X145728764Y-118642471D01*
X145871766Y-118356468D01*
X145878531Y-118350600D01*
X145882231Y-118350000D01*
X146167769Y-118350000D01*
X146176042Y-118353427D01*
G37*
G04 #@! TD.AperFunction*
G04 #@! TA.AperFunction,Conductor*
G36*
X143152511Y-115778427D02*
G01*
X143153512Y-115779566D01*
X143643740Y-116416863D01*
X143646068Y-116425510D01*
X143642746Y-116432264D01*
X143008280Y-117067707D01*
X143000009Y-117071140D01*
X142991733Y-117067720D01*
X142991720Y-117067707D01*
X142357253Y-116432264D01*
X142353833Y-116423988D01*
X142356259Y-116416863D01*
X142846488Y-115779566D01*
X142854249Y-115775098D01*
X142855762Y-115775000D01*
X143144238Y-115775000D01*
X143152511Y-115778427D01*
G37*
G04 #@! TD.AperFunction*
G04 #@! TA.AperFunction,Conductor*
G36*
X147006367Y-114208814D02*
G01*
X147006375Y-114208826D01*
X147578543Y-115090705D01*
X147580171Y-115099510D01*
X147575620Y-115106527D01*
X146353081Y-115997754D01*
X146346189Y-116000000D01*
X146057340Y-116000000D01*
X146049067Y-115996573D01*
X146046806Y-115993392D01*
X145619467Y-115109279D01*
X145618952Y-115100339D01*
X145623621Y-115094380D01*
X145629270Y-115090705D01*
X146990182Y-114205386D01*
X146998984Y-114203748D01*
X147006367Y-114208814D01*
G37*
G04 #@! TD.AperFunction*
G04 #@! TA.AperFunction,Conductor*
G36*
X147053497Y-116418409D02*
G01*
X147410854Y-116740788D01*
X147467790Y-116792151D01*
X147471638Y-116800237D01*
X147469329Y-116807837D01*
X147139211Y-117250091D01*
X147131516Y-117254671D01*
X147126048Y-117254162D01*
X146705340Y-117110237D01*
X146700854Y-117107440D01*
X146499483Y-116906069D01*
X146496056Y-116897796D01*
X146499483Y-116889523D01*
X146500023Y-116889016D01*
X147037957Y-116418291D01*
X147046439Y-116415423D01*
X147053497Y-116418409D01*
G37*
G04 #@! TD.AperFunction*
G04 #@! TA.AperFunction,Conductor*
G36*
X146164277Y-120240013D02*
G01*
X146368198Y-120443934D01*
X146368203Y-120443938D01*
X146482257Y-120539761D01*
X146486387Y-120547706D01*
X146483689Y-120556245D01*
X146481035Y-120558575D01*
X146034175Y-120844386D01*
X146025359Y-120845957D01*
X146018015Y-120840834D01*
X146017998Y-120840809D01*
X145838513Y-120558575D01*
X145838132Y-120557976D01*
X145836585Y-120549158D01*
X145839793Y-120543366D01*
X146147794Y-120239950D01*
X146156092Y-120236586D01*
X146164277Y-120240013D01*
G37*
G04 #@! TD.AperFunction*
G04 #@! TA.AperFunction,Conductor*
G36*
X143943968Y-110406239D02*
G01*
X143948506Y-110411244D01*
X144295411Y-111141461D01*
X144295866Y-111150405D01*
X144289864Y-111157050D01*
X144289294Y-111157302D01*
X143954054Y-111295222D01*
X143945100Y-111295201D01*
X143939358Y-111290052D01*
X143591135Y-110658621D01*
X143590140Y-110649722D01*
X143593105Y-110644700D01*
X143796724Y-110441081D01*
X143802166Y-110438003D01*
X143935114Y-110404911D01*
X143943968Y-110406239D01*
G37*
G04 #@! TD.AperFunction*
G04 #@! TA.AperFunction,Conductor*
G36*
X143867837Y-110151338D02*
G01*
X143874091Y-110157534D01*
X144137524Y-110773128D01*
X144137629Y-110782082D01*
X144135041Y-110786004D01*
X143934746Y-110986299D01*
X143926473Y-110989726D01*
X143920792Y-110988254D01*
X143356027Y-110674605D01*
X143350459Y-110667593D01*
X143350887Y-110659926D01*
X143497437Y-110303802D01*
X143503753Y-110297457D01*
X143858884Y-110151317D01*
X143867837Y-110151338D01*
G37*
G04 #@! TD.AperFunction*
G04 #@! TA.AperFunction,Conductor*
G36*
X146163365Y-110800790D02*
G01*
X146505355Y-110998521D01*
X146510802Y-111005629D01*
X146511199Y-111008650D01*
X146511199Y-111295149D01*
X146507772Y-111303422D01*
X146505355Y-111305278D01*
X146163365Y-111503009D01*
X146154488Y-111504183D01*
X146149247Y-111501165D01*
X145807307Y-111160185D01*
X145803869Y-111151916D01*
X145807284Y-111143638D01*
X145807307Y-111143615D01*
X146149247Y-110802634D01*
X146157525Y-110799219D01*
X146163365Y-110800790D01*
G37*
G04 #@! TD.AperFunction*
G04 #@! TA.AperFunction,Conductor*
G36*
X146796580Y-111003436D02*
G01*
X146800029Y-111011700D01*
X146800029Y-111011702D01*
X146800987Y-111395124D01*
X146797581Y-111403405D01*
X146797546Y-111403441D01*
X146525006Y-111675021D01*
X146516726Y-111678433D01*
X146508920Y-111675429D01*
X146097816Y-111305386D01*
X146093959Y-111297304D01*
X146093943Y-111296690D01*
X146093943Y-111013568D01*
X146097370Y-111005295D01*
X146105610Y-111001868D01*
X146788299Y-111000031D01*
X146796580Y-111003436D01*
G37*
G04 #@! TD.AperFunction*
G04 #@! TA.AperFunction,Conductor*
G36*
X140603337Y-119538105D02*
G01*
X140604170Y-119538752D01*
X140908544Y-119797848D01*
X140912622Y-119805820D01*
X140909869Y-119814341D01*
X140909233Y-119815030D01*
X140709907Y-120014356D01*
X140701634Y-120017783D01*
X140700654Y-120017742D01*
X139907383Y-119951034D01*
X139899426Y-119946926D01*
X139896704Y-119938395D01*
X139896769Y-119937803D01*
X139935617Y-119657763D01*
X139940148Y-119650042D01*
X139945218Y-119647843D01*
X140594603Y-119536130D01*
X140603337Y-119538105D01*
G37*
G04 #@! TD.AperFunction*
G04 #@! TA.AperFunction,Conductor*
G36*
X140258429Y-119502054D02*
G01*
X140890091Y-119598487D01*
X140897752Y-119603123D01*
X140900025Y-119610024D01*
X140900987Y-119995124D01*
X140897581Y-120003405D01*
X140897546Y-120003441D01*
X140626570Y-120273462D01*
X140618290Y-120276874D01*
X140610023Y-120273433D01*
X140609044Y-120272317D01*
X140247407Y-119803156D01*
X140244974Y-119796013D01*
X140244974Y-119513621D01*
X140248401Y-119505348D01*
X140256674Y-119501921D01*
X140258429Y-119502054D01*
G37*
G04 #@! TD.AperFunction*
G04 #@! TA.AperFunction,Conductor*
G36*
X137535687Y-115610815D02*
G01*
X137535924Y-115611389D01*
X137648933Y-115906117D01*
X137649606Y-115911852D01*
X137626354Y-116086246D01*
X137621864Y-116093994D01*
X137614757Y-116096400D01*
X137435243Y-116096400D01*
X137426970Y-116092973D01*
X137423646Y-116086246D01*
X137400393Y-115911849D01*
X137401065Y-115906121D01*
X137514076Y-115611388D01*
X137520237Y-115604891D01*
X137529189Y-115604654D01*
X137535687Y-115610815D01*
G37*
G04 #@! TD.AperFunction*
G04 #@! TA.AperFunction,Conductor*
G36*
X139372740Y-119364025D02*
G01*
X139915026Y-119638955D01*
X139920855Y-119645751D01*
X139920170Y-119654680D01*
X139914040Y-119660268D01*
X139319244Y-119895606D01*
X139310290Y-119895464D01*
X139308343Y-119894391D01*
X138948917Y-119649070D01*
X138944016Y-119641575D01*
X138945849Y-119632810D01*
X138947235Y-119631138D01*
X139077267Y-119501106D01*
X139080483Y-119498829D01*
X139362398Y-119363905D01*
X139371339Y-119363426D01*
X139372740Y-119364025D01*
G37*
G04 #@! TD.AperFunction*
G04 #@! TA.AperFunction,Conductor*
G36*
X141292048Y-111149366D02*
G01*
X141299435Y-111154426D01*
X141301305Y-111160022D01*
X141351136Y-111895512D01*
X141348276Y-111903998D01*
X141347280Y-111905008D01*
X140961668Y-112251304D01*
X140953223Y-112254282D01*
X140945578Y-112250872D01*
X140745762Y-112051056D01*
X140742335Y-112042783D01*
X140742583Y-112040386D01*
X140770914Y-111905008D01*
X140941999Y-111087481D01*
X140947048Y-111080088D01*
X140955846Y-111078428D01*
X141292048Y-111149366D01*
G37*
G04 #@! TD.AperFunction*
M02*
