G04 #@! TF.GenerationSoftware,KiCad,Pcbnew,8.0.1*
G04 #@! TF.CreationDate,2025-04-04T09:34:18-04:00*
G04 #@! TF.ProjectId,LVC_Custom,4c56435f-4375-4737-946f-6d2e6b696361,rev?*
G04 #@! TF.SameCoordinates,Original*
G04 #@! TF.FileFunction,Copper,L2,Bot*
G04 #@! TF.FilePolarity,Positive*
%FSLAX46Y46*%
G04 Gerber Fmt 4.6, Leading zero omitted, Abs format (unit mm)*
G04 Created by KiCad (PCBNEW 8.0.1) date 2025-04-04 09:34:18*
%MOMM*%
%LPD*%
G01*
G04 APERTURE LIST*
G04 Aperture macros list*
%AMRoundRect*
0 Rectangle with rounded corners*
0 $1 Rounding radius*
0 $2 $3 $4 $5 $6 $7 $8 $9 X,Y pos of 4 corners*
0 Add a 4 corners polygon primitive as box body*
4,1,4,$2,$3,$4,$5,$6,$7,$8,$9,$2,$3,0*
0 Add four circle primitives for the rounded corners*
1,1,$1+$1,$2,$3*
1,1,$1+$1,$4,$5*
1,1,$1+$1,$6,$7*
1,1,$1+$1,$8,$9*
0 Add four rect primitives between the rounded corners*
20,1,$1+$1,$2,$3,$4,$5,0*
20,1,$1+$1,$4,$5,$6,$7,0*
20,1,$1+$1,$6,$7,$8,$9,0*
20,1,$1+$1,$8,$9,$2,$3,0*%
G04 Aperture macros list end*
G04 #@! TA.AperFunction,ComponentPad*
%ADD10C,1.447800*%
G04 #@! TD*
G04 #@! TA.AperFunction,SMDPad,CuDef*
%ADD11RoundRect,0.237500X-0.237500X0.250000X-0.237500X-0.250000X0.237500X-0.250000X0.237500X0.250000X0*%
G04 #@! TD*
G04 #@! TA.AperFunction,ComponentPad*
%ADD12R,2.000000X0.900000*%
G04 #@! TD*
G04 #@! TA.AperFunction,ComponentPad*
%ADD13RoundRect,1.025000X-1.025000X1.025000X-1.025000X-1.025000X1.025000X-1.025000X1.025000X1.025000X0*%
G04 #@! TD*
G04 #@! TA.AperFunction,ComponentPad*
%ADD14C,4.100000*%
G04 #@! TD*
G04 #@! TA.AperFunction,SMDPad,CuDef*
%ADD15RoundRect,0.237500X0.237500X-0.250000X0.237500X0.250000X-0.237500X0.250000X-0.237500X-0.250000X0*%
G04 #@! TD*
G04 #@! TA.AperFunction,ComponentPad*
%ADD16RoundRect,1.025000X1.025000X-1.025000X1.025000X1.025000X-1.025000X1.025000X-1.025000X-1.025000X0*%
G04 #@! TD*
G04 #@! TA.AperFunction,ViaPad*
%ADD17C,0.800000*%
G04 #@! TD*
G04 #@! TA.AperFunction,Conductor*
%ADD18C,0.300000*%
G04 #@! TD*
G04 APERTURE END LIST*
D10*
X145300000Y-109401840D03*
X140300000Y-109401840D03*
D11*
X137300000Y-106175000D03*
X137300000Y-108000000D03*
D12*
X126650000Y-107250000D03*
X126650000Y-120750000D03*
D13*
X132650000Y-117600000D03*
D14*
X132650000Y-110400000D03*
D15*
X143590000Y-108612500D03*
X143590000Y-106787500D03*
X148600000Y-110225000D03*
X148600000Y-108400000D03*
X138910000Y-108000000D03*
X138910000Y-106175000D03*
D11*
X140100000Y-119687500D03*
X140100000Y-121512500D03*
D12*
X159850000Y-120750000D03*
X159850000Y-107250000D03*
D16*
X153850000Y-117600000D03*
D14*
X153850000Y-110400000D03*
D11*
X142000000Y-106787500D03*
X142000000Y-108612500D03*
D15*
X147030000Y-110225000D03*
X147030000Y-108400000D03*
D17*
X149300000Y-115400000D03*
X138000000Y-113500000D03*
X136800000Y-118800000D03*
X138900000Y-110400000D03*
X139400000Y-120700000D03*
X138900000Y-116500000D03*
X143500000Y-110300000D03*
X146800000Y-111400000D03*
X140900000Y-120000000D03*
D18*
X138000000Y-109500000D02*
X138900000Y-110400000D01*
X138000000Y-108000000D02*
X138000000Y-109500000D01*
X138000000Y-108000000D02*
X138910000Y-108000000D01*
X137300000Y-108000000D02*
X138000000Y-108000000D01*
X138000000Y-107000000D02*
X137900000Y-107100000D01*
X146687500Y-106487500D02*
X148600000Y-108400000D01*
X138910000Y-106175000D02*
X140525000Y-106175000D01*
X140100000Y-121400000D02*
X139400000Y-120700000D01*
X136200000Y-109600000D02*
X136200000Y-113800000D01*
X140525000Y-106175000D02*
X140900000Y-105800000D01*
X142602500Y-105800000D02*
X143590000Y-106787500D01*
X136200000Y-113800000D02*
X138900000Y-116500000D01*
X136500000Y-107100000D02*
X136200000Y-107400000D01*
X138825000Y-106175000D02*
X138000000Y-107000000D01*
X137900000Y-107100000D02*
X136500000Y-107100000D01*
X140900000Y-105800000D02*
X142602500Y-105800000D01*
X138910000Y-106175000D02*
X138825000Y-106175000D01*
X136200000Y-107400000D02*
X136200000Y-109600000D01*
X140100000Y-121512500D02*
X140100000Y-121400000D01*
X143590000Y-106787500D02*
X143890000Y-106487500D01*
X143890000Y-106487500D02*
X146687500Y-106487500D01*
X142000000Y-108612500D02*
X143590000Y-108612500D01*
X143500000Y-110300000D02*
X143500000Y-108702500D01*
X143500000Y-108702500D02*
X143590000Y-108612500D01*
X147030000Y-110225000D02*
X148600000Y-110225000D01*
X147030000Y-111170000D02*
X146800000Y-111400000D01*
X147030000Y-110225000D02*
X147030000Y-111170000D01*
X140587500Y-119687500D02*
X140900000Y-120000000D01*
X140100000Y-119687500D02*
X140587500Y-119687500D01*
G04 #@! TA.AperFunction,Conductor*
G36*
X170001224Y-105000030D02*
G01*
X170027839Y-105000682D01*
X170089724Y-105002198D01*
X170106613Y-105004070D01*
X170163581Y-105015401D01*
X170281428Y-105038842D01*
X170299989Y-105044473D01*
X170463530Y-105112214D01*
X170480643Y-105121361D01*
X170627818Y-105219700D01*
X170642821Y-105232012D01*
X170767987Y-105357178D01*
X170780299Y-105372181D01*
X170878638Y-105519356D01*
X170887786Y-105536471D01*
X170955524Y-105700003D01*
X170961158Y-105718576D01*
X170995929Y-105893386D01*
X170997801Y-105910273D01*
X170999970Y-105998774D01*
X171000000Y-106001200D01*
X171000000Y-121998799D01*
X170999970Y-122001225D01*
X170997801Y-122089726D01*
X170995929Y-122106613D01*
X170961158Y-122281423D01*
X170955524Y-122299996D01*
X170887786Y-122463528D01*
X170878638Y-122480643D01*
X170780299Y-122627818D01*
X170767987Y-122642821D01*
X170642821Y-122767987D01*
X170627818Y-122780299D01*
X170480643Y-122878638D01*
X170463528Y-122887786D01*
X170299996Y-122955524D01*
X170281423Y-122961158D01*
X170106613Y-122995929D01*
X170089726Y-122997801D01*
X170004410Y-122999891D01*
X170001223Y-122999970D01*
X169998800Y-123000000D01*
X117001200Y-123000000D01*
X116998776Y-122999970D01*
X116995505Y-122999889D01*
X116910273Y-122997801D01*
X116893386Y-122995929D01*
X116718576Y-122961158D01*
X116700003Y-122955524D01*
X116536471Y-122887786D01*
X116519356Y-122878638D01*
X116372181Y-122780299D01*
X116357178Y-122767987D01*
X116232012Y-122642821D01*
X116219700Y-122627818D01*
X116121361Y-122480643D01*
X116112213Y-122463528D01*
X116044473Y-122299989D01*
X116038842Y-122281428D01*
X116004070Y-122106613D01*
X116002198Y-122089724D01*
X116000030Y-122001223D01*
X116000000Y-121998799D01*
X116000000Y-121219746D01*
X125449500Y-121219746D01*
X125449501Y-121219758D01*
X125461132Y-121278227D01*
X125461134Y-121278233D01*
X125499008Y-121334914D01*
X125505448Y-121344552D01*
X125571769Y-121388867D01*
X125616231Y-121397711D01*
X125630241Y-121400498D01*
X125630246Y-121400498D01*
X125630252Y-121400500D01*
X125630253Y-121400500D01*
X127669747Y-121400500D01*
X127669748Y-121400500D01*
X127728231Y-121388867D01*
X127794552Y-121344552D01*
X127838867Y-121278231D01*
X127850500Y-121219748D01*
X127850500Y-120700000D01*
X138794318Y-120700000D01*
X138814955Y-120856758D01*
X138814957Y-120856766D01*
X138875462Y-121002838D01*
X138875462Y-121002839D01*
X138971713Y-121128276D01*
X138971718Y-121128282D01*
X138971722Y-121128285D01*
X138971723Y-121128286D01*
X139097157Y-121224535D01*
X139097158Y-121224535D01*
X139097159Y-121224536D01*
X139113350Y-121231242D01*
X139137621Y-121241296D01*
X139160009Y-121254222D01*
X139165828Y-121258688D01*
X139165833Y-121258690D01*
X139165834Y-121258691D01*
X139233805Y-121292217D01*
X139277629Y-121334914D01*
X139283107Y-121347324D01*
X139418595Y-121721823D01*
X139424500Y-121755503D01*
X139424500Y-121815266D01*
X139427274Y-121844844D01*
X139427276Y-121844852D01*
X139470884Y-121969476D01*
X139494316Y-122001225D01*
X139549289Y-122075711D01*
X139549292Y-122075713D01*
X139549293Y-122075714D01*
X139655523Y-122154115D01*
X139655524Y-122154115D01*
X139655525Y-122154116D01*
X139780151Y-122197725D01*
X139807441Y-122200284D01*
X139809733Y-122200499D01*
X139809738Y-122200500D01*
X139809744Y-122200500D01*
X140390262Y-122200500D01*
X140390265Y-122200499D01*
X140419849Y-122197725D01*
X140544475Y-122154116D01*
X140650711Y-122075711D01*
X140729116Y-121969475D01*
X140772725Y-121844849D01*
X140775500Y-121815256D01*
X140775500Y-121219746D01*
X158649500Y-121219746D01*
X158649501Y-121219758D01*
X158661132Y-121278227D01*
X158661134Y-121278233D01*
X158699008Y-121334914D01*
X158705448Y-121344552D01*
X158771769Y-121388867D01*
X158816231Y-121397711D01*
X158830241Y-121400498D01*
X158830246Y-121400498D01*
X158830252Y-121400500D01*
X158830253Y-121400500D01*
X160869747Y-121400500D01*
X160869748Y-121400500D01*
X160928231Y-121388867D01*
X160994552Y-121344552D01*
X161038867Y-121278231D01*
X161050500Y-121219748D01*
X161050500Y-120280252D01*
X161048803Y-120271723D01*
X161047711Y-120266231D01*
X161038867Y-120221769D01*
X160994552Y-120155448D01*
X160933954Y-120114957D01*
X160928233Y-120111134D01*
X160928231Y-120111133D01*
X160928228Y-120111132D01*
X160928227Y-120111132D01*
X160869758Y-120099501D01*
X160869748Y-120099500D01*
X158830252Y-120099500D01*
X158830251Y-120099500D01*
X158830241Y-120099501D01*
X158771772Y-120111132D01*
X158771766Y-120111134D01*
X158705451Y-120155445D01*
X158705445Y-120155451D01*
X158661134Y-120221766D01*
X158661132Y-120221772D01*
X158649501Y-120280241D01*
X158649500Y-120280253D01*
X158649500Y-121219746D01*
X140775500Y-121219746D01*
X140775500Y-121209744D01*
X140775500Y-121209738D01*
X140775499Y-121209733D01*
X140772725Y-121180155D01*
X140772725Y-121180151D01*
X140729116Y-121055525D01*
X140690232Y-121002839D01*
X140650714Y-120949293D01*
X140650713Y-120949292D01*
X140650711Y-120949289D01*
X140650706Y-120949285D01*
X140544476Y-120870884D01*
X140419852Y-120827276D01*
X140419851Y-120827275D01*
X140419849Y-120827275D01*
X140419847Y-120827274D01*
X140419844Y-120827274D01*
X140390266Y-120824500D01*
X140387950Y-120824392D01*
X140387955Y-120824283D01*
X140387950Y-120824283D01*
X140387960Y-120824174D01*
X140387996Y-120823406D01*
X140346277Y-120813090D01*
X140082467Y-120674119D01*
X140039821Y-120630322D01*
X139987645Y-120524537D01*
X139984565Y-120518292D01*
X139975782Y-120457740D01*
X140004267Y-120403590D01*
X140059141Y-120376525D01*
X140073353Y-120375500D01*
X140343994Y-120375500D01*
X140348592Y-120375607D01*
X140381542Y-120377139D01*
X140381487Y-120378314D01*
X140435424Y-120392793D01*
X140455067Y-120409585D01*
X140458432Y-120413326D01*
X140458436Y-120413330D01*
X140462566Y-120417773D01*
X140462355Y-120417968D01*
X140470190Y-120426291D01*
X140471718Y-120428282D01*
X140597159Y-120524536D01*
X140597160Y-120524536D01*
X140597161Y-120524537D01*
X140743233Y-120585042D01*
X140743238Y-120585044D01*
X140860809Y-120600522D01*
X140899999Y-120605682D01*
X140900000Y-120605682D01*
X140900001Y-120605682D01*
X140931352Y-120601554D01*
X141056762Y-120585044D01*
X141202841Y-120524536D01*
X141328282Y-120428282D01*
X141424536Y-120302841D01*
X141485044Y-120156762D01*
X141505682Y-120000000D01*
X141485044Y-119843238D01*
X141424537Y-119697161D01*
X141424537Y-119697160D01*
X141328286Y-119571723D01*
X141328285Y-119571722D01*
X141328282Y-119571718D01*
X141328277Y-119571714D01*
X141328276Y-119571713D01*
X141202838Y-119475462D01*
X141056762Y-119414956D01*
X141056762Y-119414955D01*
X140922503Y-119397280D01*
X140913261Y-119395309D01*
X140913259Y-119395324D01*
X140908481Y-119394399D01*
X140894213Y-119393069D01*
X140838030Y-119368840D01*
X140827307Y-119357820D01*
X140746159Y-119260297D01*
X140732914Y-119236908D01*
X140732582Y-119237084D01*
X140729118Y-119230530D01*
X140729116Y-119230525D01*
X140650711Y-119124289D01*
X140650706Y-119124285D01*
X140544476Y-119045884D01*
X140419852Y-119002276D01*
X140419851Y-119002275D01*
X140419849Y-119002275D01*
X140419847Y-119002274D01*
X140419844Y-119002274D01*
X140390266Y-118999500D01*
X140390256Y-118999500D01*
X139809744Y-118999500D01*
X139809733Y-118999500D01*
X139780155Y-119002274D01*
X139780147Y-119002276D01*
X139655523Y-119045884D01*
X139549293Y-119124285D01*
X139549285Y-119124293D01*
X139470884Y-119230523D01*
X139427276Y-119355147D01*
X139427274Y-119355155D01*
X139424500Y-119384733D01*
X139424500Y-119990253D01*
X139424937Y-119994913D01*
X139411545Y-120054615D01*
X139365619Y-120095044D01*
X139339292Y-120102310D01*
X139243240Y-120114955D01*
X139243233Y-120114957D01*
X139097161Y-120175462D01*
X139097160Y-120175462D01*
X138971723Y-120271713D01*
X138971713Y-120271723D01*
X138875462Y-120397160D01*
X138875462Y-120397161D01*
X138814957Y-120543233D01*
X138814955Y-120543241D01*
X138794318Y-120699999D01*
X138794318Y-120700000D01*
X127850500Y-120700000D01*
X127850500Y-120280252D01*
X127848803Y-120271723D01*
X127847711Y-120266231D01*
X127838867Y-120221769D01*
X127794552Y-120155448D01*
X127733954Y-120114957D01*
X127728233Y-120111134D01*
X127728231Y-120111133D01*
X127728228Y-120111132D01*
X127728227Y-120111132D01*
X127669758Y-120099501D01*
X127669748Y-120099500D01*
X125630252Y-120099500D01*
X125630251Y-120099500D01*
X125630241Y-120099501D01*
X125571772Y-120111132D01*
X125571766Y-120111134D01*
X125505451Y-120155445D01*
X125505445Y-120155451D01*
X125461134Y-120221766D01*
X125461132Y-120221772D01*
X125449501Y-120280241D01*
X125449500Y-120280253D01*
X125449500Y-121219746D01*
X116000000Y-121219746D01*
X116000000Y-113846144D01*
X135849500Y-113846144D01*
X135873386Y-113935288D01*
X135919530Y-114015212D01*
X137544835Y-115640517D01*
X138040517Y-116136199D01*
X138059300Y-116162410D01*
X138341309Y-116734168D01*
X138341312Y-116734173D01*
X138347005Y-116741857D01*
X138358919Y-116762900D01*
X138375464Y-116802841D01*
X138471718Y-116928282D01*
X138597159Y-117024536D01*
X138743238Y-117085044D01*
X138860809Y-117100522D01*
X138899999Y-117105682D01*
X138900000Y-117105682D01*
X138900001Y-117105682D01*
X138931352Y-117101554D01*
X139056762Y-117085044D01*
X139202841Y-117024536D01*
X139328282Y-116928282D01*
X139424536Y-116802841D01*
X139485044Y-116656762D01*
X139505682Y-116500000D01*
X139485044Y-116343238D01*
X139424537Y-116197161D01*
X139424537Y-116197160D01*
X139328286Y-116071723D01*
X139328285Y-116071722D01*
X139328282Y-116071718D01*
X139328277Y-116071714D01*
X139328276Y-116071713D01*
X139274897Y-116030754D01*
X139202841Y-115975464D01*
X139202839Y-115975463D01*
X139162375Y-115958702D01*
X139139989Y-115945776D01*
X139134171Y-115941311D01*
X139134169Y-115941310D01*
X139134168Y-115941309D01*
X139134164Y-115941307D01*
X138562410Y-115659300D01*
X138536199Y-115640517D01*
X136579496Y-113683814D01*
X136551719Y-113629297D01*
X136550500Y-113613810D01*
X136550500Y-111400000D01*
X146194318Y-111400000D01*
X146214955Y-111556758D01*
X146214957Y-111556766D01*
X146275462Y-111702838D01*
X146275462Y-111702839D01*
X146371713Y-111828276D01*
X146371718Y-111828282D01*
X146497159Y-111924536D01*
X146643238Y-111985044D01*
X146760809Y-112000522D01*
X146799999Y-112005682D01*
X146800000Y-112005682D01*
X146800001Y-112005682D01*
X146831352Y-112001554D01*
X146956762Y-111985044D01*
X147102841Y-111924536D01*
X147228282Y-111828282D01*
X147324536Y-111702841D01*
X147385044Y-111556762D01*
X147405682Y-111400000D01*
X147405682Y-111399998D01*
X147405682Y-111397353D01*
X147405373Y-111387144D01*
X147405220Y-111387149D01*
X147401212Y-111243241D01*
X147400605Y-111221437D01*
X147411115Y-111174218D01*
X147583586Y-110831130D01*
X147626612Y-110787632D01*
X147769754Y-110714078D01*
X147830149Y-110704300D01*
X147860243Y-110714078D01*
X148144831Y-110860316D01*
X148151887Y-110864693D01*
X148156774Y-110867276D01*
X148166514Y-110871458D01*
X148168622Y-110872541D01*
X148207301Y-110885044D01*
X148217853Y-110888455D01*
X148220095Y-110889210D01*
X148280151Y-110910225D01*
X148307441Y-110912784D01*
X148309733Y-110912999D01*
X148309738Y-110913000D01*
X148309744Y-110913000D01*
X148890262Y-110913000D01*
X148890265Y-110912999D01*
X148919849Y-110910225D01*
X149044475Y-110866616D01*
X149150711Y-110788211D01*
X149229116Y-110681975D01*
X149272725Y-110557349D01*
X149275500Y-110527756D01*
X149275500Y-110400000D01*
X151594671Y-110400000D01*
X151613965Y-110694377D01*
X151635431Y-110802293D01*
X151671519Y-110983722D01*
X151671520Y-110983726D01*
X151671521Y-110983729D01*
X151766347Y-111263075D01*
X151766352Y-111263086D01*
X151896828Y-111527665D01*
X152060724Y-111772953D01*
X152060734Y-111772965D01*
X152193659Y-111924537D01*
X152255242Y-111994758D01*
X152477043Y-112189273D01*
X152722335Y-112353172D01*
X152986923Y-112483652D01*
X153266278Y-112578481D01*
X153555620Y-112636034D01*
X153850000Y-112655329D01*
X154144380Y-112636034D01*
X154433722Y-112578481D01*
X154713077Y-112483652D01*
X154977665Y-112353172D01*
X155222957Y-112189273D01*
X155444758Y-111994758D01*
X155639273Y-111772957D01*
X155803172Y-111527665D01*
X155933652Y-111263077D01*
X156028481Y-110983722D01*
X156086034Y-110694380D01*
X156105329Y-110400000D01*
X156086034Y-110105620D01*
X156028481Y-109816278D01*
X155933652Y-109536923D01*
X155803172Y-109272336D01*
X155639273Y-109027043D01*
X155490127Y-108856975D01*
X155444766Y-108805251D01*
X155444765Y-108805250D01*
X155444758Y-108805242D01*
X155371383Y-108740894D01*
X155222965Y-108610734D01*
X155222955Y-108610726D01*
X155151844Y-108563211D01*
X154977665Y-108446828D01*
X154713086Y-108316352D01*
X154713075Y-108316347D01*
X154433729Y-108221521D01*
X154433726Y-108221520D01*
X154433722Y-108221519D01*
X154259805Y-108186925D01*
X154144377Y-108163965D01*
X153850000Y-108144671D01*
X153555622Y-108163965D01*
X153383258Y-108198250D01*
X153266278Y-108221519D01*
X153266275Y-108221519D01*
X153266270Y-108221521D01*
X152986924Y-108316347D01*
X152986913Y-108316352D01*
X152722336Y-108446827D01*
X152477043Y-108610726D01*
X152477034Y-108610734D01*
X152255251Y-108805233D01*
X152255233Y-108805251D01*
X152060734Y-109027034D01*
X152060726Y-109027043D01*
X151896827Y-109272336D01*
X151766352Y-109536913D01*
X151766347Y-109536924D01*
X151671521Y-109816270D01*
X151671519Y-109816275D01*
X151671519Y-109816278D01*
X151650443Y-109922238D01*
X151613965Y-110105622D01*
X151594671Y-110399999D01*
X151594671Y-110400000D01*
X149275500Y-110400000D01*
X149275500Y-109922244D01*
X149275500Y-109922238D01*
X149275499Y-109922233D01*
X149272725Y-109892655D01*
X149272725Y-109892651D01*
X149229116Y-109768025D01*
X149205419Y-109735917D01*
X149150714Y-109661793D01*
X149150713Y-109661792D01*
X149150711Y-109661789D01*
X149150706Y-109661785D01*
X149044476Y-109583384D01*
X148919852Y-109539776D01*
X148919851Y-109539775D01*
X148919849Y-109539775D01*
X148919847Y-109539774D01*
X148919844Y-109539774D01*
X148890266Y-109537000D01*
X148890256Y-109537000D01*
X148309744Y-109537000D01*
X148309733Y-109537000D01*
X148280154Y-109539774D01*
X148280151Y-109539774D01*
X148280151Y-109539775D01*
X148261949Y-109546144D01*
X148192283Y-109570521D01*
X148186791Y-109572265D01*
X148168616Y-109577459D01*
X148166493Y-109578550D01*
X148156768Y-109582726D01*
X148151874Y-109585313D01*
X148144837Y-109589678D01*
X147860245Y-109735917D01*
X147799847Y-109745696D01*
X147769750Y-109735917D01*
X147485171Y-109589684D01*
X147478134Y-109585318D01*
X147473236Y-109582729D01*
X147463493Y-109578544D01*
X147461380Y-109577458D01*
X147412288Y-109561592D01*
X147410038Y-109560835D01*
X147353013Y-109540882D01*
X147349849Y-109539775D01*
X147349848Y-109539774D01*
X147349846Y-109539774D01*
X147320266Y-109537000D01*
X147320256Y-109537000D01*
X146739744Y-109537000D01*
X146739733Y-109537000D01*
X146710155Y-109539774D01*
X146710147Y-109539776D01*
X146585523Y-109583384D01*
X146479293Y-109661785D01*
X146479285Y-109661793D01*
X146400884Y-109768023D01*
X146357276Y-109892647D01*
X146357274Y-109892655D01*
X146354500Y-109922233D01*
X146354500Y-110527766D01*
X146357274Y-110557344D01*
X146357276Y-110557352D01*
X146400882Y-110681971D01*
X146400884Y-110681975D01*
X146425008Y-110714663D01*
X146427858Y-110718736D01*
X146455278Y-110760085D01*
X146471680Y-110819030D01*
X146450303Y-110876360D01*
X146448818Y-110878185D01*
X146366132Y-110977386D01*
X146365723Y-110978098D01*
X146358432Y-110989032D01*
X146275465Y-111097157D01*
X146275463Y-111097160D01*
X146243545Y-111174218D01*
X146223986Y-111221439D01*
X146214957Y-111243236D01*
X146214955Y-111243241D01*
X146194318Y-111399999D01*
X146194318Y-111400000D01*
X136550500Y-111400000D01*
X136550500Y-108594718D01*
X136569407Y-108536527D01*
X136618907Y-108500563D01*
X136680093Y-108500563D01*
X136729155Y-108535930D01*
X136749289Y-108563211D01*
X136749292Y-108563213D01*
X136749293Y-108563214D01*
X136855523Y-108641615D01*
X136855524Y-108641615D01*
X136855525Y-108641616D01*
X136980151Y-108685225D01*
X137007441Y-108687784D01*
X137009733Y-108687999D01*
X137009738Y-108688000D01*
X137550500Y-108688000D01*
X137608691Y-108706907D01*
X137644655Y-108756407D01*
X137649500Y-108787000D01*
X137649500Y-109546146D01*
X137662336Y-109594048D01*
X137662336Y-109594050D01*
X137662337Y-109594050D01*
X137662337Y-109594051D01*
X137673386Y-109635288D01*
X137719530Y-109715212D01*
X137719532Y-109715214D01*
X138040517Y-110036200D01*
X138059300Y-110062410D01*
X138341309Y-110634168D01*
X138341312Y-110634173D01*
X138347005Y-110641857D01*
X138358919Y-110662900D01*
X138375464Y-110702841D01*
X138375465Y-110702843D01*
X138375466Y-110702844D01*
X138468843Y-110824536D01*
X138471718Y-110828282D01*
X138471722Y-110828285D01*
X138471723Y-110828286D01*
X138501082Y-110850813D01*
X138597159Y-110924536D01*
X138743238Y-110985044D01*
X138860809Y-111000522D01*
X138899999Y-111005682D01*
X138900000Y-111005682D01*
X138900001Y-111005682D01*
X138931352Y-111001554D01*
X139056762Y-110985044D01*
X139202841Y-110924536D01*
X139328282Y-110828282D01*
X139424536Y-110702841D01*
X139485044Y-110556762D01*
X139505682Y-110400000D01*
X139485044Y-110243238D01*
X139425528Y-110099556D01*
X139420728Y-110038560D01*
X139422736Y-110035281D01*
X139389497Y-110031788D01*
X139351222Y-110001614D01*
X139328286Y-109971723D01*
X139328285Y-109971722D01*
X139328282Y-109971718D01*
X139328277Y-109971714D01*
X139328276Y-109971713D01*
X139263792Y-109922233D01*
X139202841Y-109875464D01*
X139202839Y-109875463D01*
X139162375Y-109858702D01*
X139139989Y-109845776D01*
X139134171Y-109841311D01*
X139134169Y-109841310D01*
X139134168Y-109841309D01*
X139134164Y-109841307D01*
X138562410Y-109559300D01*
X138536199Y-109540517D01*
X138397522Y-109401840D01*
X139370508Y-109401840D01*
X139390710Y-109594051D01*
X139390820Y-109595092D01*
X139450867Y-109779898D01*
X139515501Y-109891849D01*
X139528222Y-109951696D01*
X139521850Y-109966007D01*
X139568720Y-109977260D01*
X139590564Y-109995427D01*
X139678042Y-110092582D01*
X139678043Y-110092583D01*
X139678047Y-110092585D01*
X139678048Y-110092587D01*
X139835254Y-110206804D01*
X139835259Y-110206806D01*
X139835264Y-110206809D01*
X140012764Y-110285836D01*
X140012771Y-110285839D01*
X140202842Y-110326240D01*
X140202845Y-110326240D01*
X140397155Y-110326240D01*
X140397158Y-110326240D01*
X140587229Y-110285839D01*
X140764746Y-110206804D01*
X140921952Y-110092587D01*
X141051975Y-109948182D01*
X141149133Y-109779898D01*
X141209180Y-109595092D01*
X141229492Y-109401840D01*
X141209180Y-109208588D01*
X141188547Y-109145089D01*
X141188547Y-109083905D01*
X141206358Y-109059388D01*
X141165012Y-109041254D01*
X141150463Y-109023389D01*
X141306990Y-109023389D01*
X141340892Y-109034404D01*
X141366264Y-109063663D01*
X141366478Y-109063506D01*
X141368481Y-109066221D01*
X141370229Y-109068236D01*
X141370885Y-109069477D01*
X141449285Y-109175706D01*
X141449289Y-109175711D01*
X141449292Y-109175713D01*
X141449293Y-109175714D01*
X141555523Y-109254115D01*
X141555524Y-109254115D01*
X141555525Y-109254116D01*
X141680151Y-109297725D01*
X141707441Y-109300284D01*
X141709733Y-109300499D01*
X141709738Y-109300500D01*
X141709744Y-109300500D01*
X142290262Y-109300500D01*
X142290265Y-109300499D01*
X142319849Y-109297725D01*
X142407746Y-109266967D01*
X142413214Y-109265230D01*
X142431377Y-109260041D01*
X142433464Y-109258968D01*
X142443216Y-109254779D01*
X142444462Y-109254120D01*
X142444475Y-109254116D01*
X142444485Y-109254108D01*
X142448120Y-109252188D01*
X142455167Y-109247815D01*
X142749754Y-109096439D01*
X142810150Y-109086661D01*
X142840243Y-109096439D01*
X142957491Y-109156687D01*
X143000607Y-109200100D01*
X143005716Y-109212124D01*
X143108541Y-109506782D01*
X143109862Y-109567953D01*
X143108817Y-109571216D01*
X142939362Y-110070529D01*
X142939361Y-110070535D01*
X142937949Y-110080013D01*
X142931495Y-110103306D01*
X142914956Y-110143237D01*
X142914955Y-110143238D01*
X142894318Y-110299999D01*
X142894318Y-110300000D01*
X142914955Y-110456758D01*
X142914957Y-110456766D01*
X142975462Y-110602838D01*
X142975462Y-110602839D01*
X143064393Y-110718736D01*
X143071718Y-110728282D01*
X143197159Y-110824536D01*
X143197160Y-110824536D01*
X143197161Y-110824537D01*
X143322273Y-110876360D01*
X143343238Y-110885044D01*
X143460809Y-110900522D01*
X143499999Y-110905682D01*
X143500000Y-110905682D01*
X143500001Y-110905682D01*
X143531352Y-110901554D01*
X143656762Y-110885044D01*
X143802841Y-110824536D01*
X143928282Y-110728282D01*
X144024536Y-110602841D01*
X144085044Y-110456762D01*
X144105682Y-110300000D01*
X144085044Y-110143238D01*
X144068282Y-110102771D01*
X144061593Y-110077801D01*
X144060637Y-110070532D01*
X143908161Y-109621251D01*
X143907365Y-109560073D01*
X143918425Y-109536228D01*
X144004100Y-109401840D01*
X144370508Y-109401840D01*
X144390710Y-109594051D01*
X144390820Y-109595092D01*
X144450867Y-109779898D01*
X144548025Y-109948182D01*
X144678048Y-110092587D01*
X144835254Y-110206804D01*
X144835259Y-110206806D01*
X144835264Y-110206809D01*
X145012764Y-110285836D01*
X145012771Y-110285839D01*
X145202842Y-110326240D01*
X145202845Y-110326240D01*
X145397155Y-110326240D01*
X145397158Y-110326240D01*
X145587229Y-110285839D01*
X145764746Y-110206804D01*
X145921952Y-110092587D01*
X146051975Y-109948182D01*
X146149133Y-109779898D01*
X146209180Y-109595092D01*
X146229492Y-109401840D01*
X146209180Y-109208588D01*
X146149133Y-109023782D01*
X146051975Y-108855498D01*
X145921952Y-108711093D01*
X145764746Y-108596876D01*
X145764742Y-108596874D01*
X145764735Y-108596870D01*
X145587235Y-108517843D01*
X145587230Y-108517841D01*
X145587229Y-108517841D01*
X145587226Y-108517840D01*
X145587225Y-108517840D01*
X145551073Y-108510155D01*
X145397158Y-108477440D01*
X145202842Y-108477440D01*
X145081642Y-108503201D01*
X145012774Y-108517840D01*
X145012764Y-108517843D01*
X144835264Y-108596870D01*
X144835257Y-108596874D01*
X144678046Y-108711094D01*
X144558824Y-108843504D01*
X144548025Y-108855498D01*
X144450867Y-109023782D01*
X144425920Y-109100560D01*
X144390820Y-109208586D01*
X144370508Y-109401840D01*
X144004100Y-109401840D01*
X144194378Y-109103375D01*
X144198165Y-109097861D01*
X144219116Y-109069475D01*
X144262725Y-108944849D01*
X144265500Y-108915256D01*
X144265500Y-108309744D01*
X144265500Y-108309738D01*
X144265499Y-108309733D01*
X144262725Y-108280155D01*
X144262725Y-108280151D01*
X144219116Y-108155525D01*
X144211105Y-108144671D01*
X144140714Y-108049293D01*
X144140713Y-108049292D01*
X144140711Y-108049289D01*
X144140706Y-108049285D01*
X144034476Y-107970884D01*
X143909852Y-107927276D01*
X143909851Y-107927275D01*
X143909849Y-107927275D01*
X143909847Y-107927274D01*
X143909844Y-107927274D01*
X143880266Y-107924500D01*
X143880256Y-107924500D01*
X143299744Y-107924500D01*
X143299733Y-107924500D01*
X143270154Y-107927274D01*
X143182283Y-107958021D01*
X143176791Y-107959765D01*
X143158616Y-107964959D01*
X143156493Y-107966050D01*
X143146768Y-107970226D01*
X143141878Y-107972811D01*
X143134838Y-107977178D01*
X142840246Y-108128556D01*
X142779847Y-108138335D01*
X142749750Y-108128556D01*
X142455171Y-107977184D01*
X142448134Y-107972818D01*
X142443236Y-107970229D01*
X142433493Y-107966044D01*
X142431380Y-107964958D01*
X142382288Y-107949092D01*
X142380038Y-107948335D01*
X142319846Y-107927274D01*
X142290266Y-107924500D01*
X142290256Y-107924500D01*
X141709744Y-107924500D01*
X141709733Y-107924500D01*
X141680155Y-107927274D01*
X141680147Y-107927276D01*
X141555523Y-107970884D01*
X141449293Y-108049285D01*
X141449285Y-108049293D01*
X141370884Y-108155523D01*
X141327276Y-108280147D01*
X141327274Y-108280155D01*
X141324500Y-108309733D01*
X141324500Y-108915266D01*
X141327274Y-108944850D01*
X141327569Y-108946198D01*
X141327482Y-108947066D01*
X141327837Y-108950846D01*
X141327099Y-108950915D01*
X141321510Y-109007083D01*
X141306990Y-109023389D01*
X141150463Y-109023389D01*
X141145113Y-109016820D01*
X141051975Y-108855498D01*
X140921952Y-108711093D01*
X140764746Y-108596876D01*
X140764742Y-108596874D01*
X140764735Y-108596870D01*
X140587235Y-108517843D01*
X140587230Y-108517841D01*
X140587229Y-108517841D01*
X140587226Y-108517840D01*
X140587225Y-108517840D01*
X140551073Y-108510155D01*
X140397158Y-108477440D01*
X140202842Y-108477440D01*
X140081642Y-108503201D01*
X140012774Y-108517840D01*
X140012764Y-108517843D01*
X139835264Y-108596870D01*
X139835257Y-108596874D01*
X139678046Y-108711094D01*
X139558824Y-108843504D01*
X139548025Y-108855498D01*
X139450867Y-109023782D01*
X139425920Y-109100560D01*
X139390820Y-109208586D01*
X139370508Y-109401840D01*
X138397522Y-109401840D01*
X138379496Y-109383814D01*
X138351719Y-109329297D01*
X138350500Y-109313810D01*
X138350500Y-108740894D01*
X138369407Y-108682703D01*
X138418907Y-108646739D01*
X138480093Y-108646739D01*
X138482181Y-108647444D01*
X138590151Y-108685225D01*
X138617441Y-108687784D01*
X138619733Y-108687999D01*
X138619738Y-108688000D01*
X138619744Y-108688000D01*
X139200262Y-108688000D01*
X139200265Y-108687999D01*
X139229849Y-108685225D01*
X139354475Y-108641616D01*
X139460711Y-108563211D01*
X139539116Y-108456975D01*
X139582725Y-108332349D01*
X139585500Y-108302756D01*
X139585500Y-107697244D01*
X139585500Y-107697238D01*
X139585499Y-107697233D01*
X139582725Y-107667655D01*
X139582725Y-107667651D01*
X139539116Y-107543025D01*
X139503041Y-107494145D01*
X139460714Y-107436793D01*
X139460713Y-107436792D01*
X139460711Y-107436789D01*
X139460706Y-107436785D01*
X139354476Y-107358384D01*
X139229852Y-107314776D01*
X139229851Y-107314775D01*
X139229849Y-107314775D01*
X139229847Y-107314774D01*
X139229844Y-107314774D01*
X139200266Y-107312000D01*
X139200256Y-107312000D01*
X138619744Y-107312000D01*
X138619733Y-107312000D01*
X138590155Y-107314774D01*
X138590147Y-107314776D01*
X138465528Y-107358382D01*
X138465523Y-107358385D01*
X138398019Y-107408204D01*
X138382841Y-107416994D01*
X138382844Y-107417000D01*
X138382430Y-107417232D01*
X138379071Y-107419178D01*
X138378854Y-107419273D01*
X138378606Y-107419382D01*
X138378599Y-107419386D01*
X138297277Y-107476280D01*
X138238758Y-107494145D01*
X138180914Y-107474202D01*
X138145840Y-107424067D01*
X138146933Y-107362892D01*
X138170518Y-107325162D01*
X138201288Y-107294391D01*
X138201291Y-107294390D01*
X138215211Y-107280470D01*
X138215212Y-107280470D01*
X138322915Y-107172765D01*
X138358295Y-107150022D01*
X139110582Y-106869249D01*
X139145199Y-106863000D01*
X139200262Y-106863000D01*
X139200265Y-106862999D01*
X139229849Y-106860225D01*
X139317746Y-106829467D01*
X139323214Y-106827730D01*
X139341377Y-106822541D01*
X139343464Y-106821468D01*
X139353216Y-106817279D01*
X139354462Y-106816620D01*
X139354475Y-106816616D01*
X139354485Y-106816607D01*
X139358123Y-106814686D01*
X139365173Y-106810312D01*
X139752791Y-106611133D01*
X139898139Y-106536445D01*
X139943386Y-106525500D01*
X140571142Y-106525500D01*
X140571144Y-106525500D01*
X140660288Y-106501614D01*
X140740212Y-106455470D01*
X140942582Y-106253100D01*
X141016187Y-106179496D01*
X141070703Y-106151719D01*
X141086190Y-106150500D01*
X142416310Y-106150500D01*
X142474501Y-106169407D01*
X142486314Y-106179496D01*
X142547114Y-106240296D01*
X142567361Y-106269608D01*
X142834908Y-106863000D01*
X142905751Y-107020121D01*
X142914500Y-107060813D01*
X142914500Y-107090266D01*
X142917274Y-107119844D01*
X142917276Y-107119852D01*
X142960884Y-107244476D01*
X143012767Y-107314775D01*
X143039289Y-107350711D01*
X143039292Y-107350713D01*
X143039293Y-107350714D01*
X143145523Y-107429115D01*
X143145524Y-107429115D01*
X143145525Y-107429116D01*
X143270151Y-107472725D01*
X143297441Y-107475284D01*
X143299733Y-107475499D01*
X143299738Y-107475500D01*
X143299744Y-107475500D01*
X143880262Y-107475500D01*
X143880265Y-107475499D01*
X143909849Y-107472725D01*
X144034475Y-107429116D01*
X144140711Y-107350711D01*
X144195845Y-107276005D01*
X144204602Y-107265699D01*
X144592438Y-106867890D01*
X144646597Y-106839423D01*
X144663324Y-106838000D01*
X146501310Y-106838000D01*
X146559501Y-106856907D01*
X146571314Y-106866996D01*
X147557114Y-107852796D01*
X147577361Y-107882108D01*
X147617093Y-107970229D01*
X147905882Y-108610734D01*
X147915751Y-108632621D01*
X147924500Y-108673313D01*
X147924500Y-108702766D01*
X147927274Y-108732344D01*
X147927276Y-108732352D01*
X147970884Y-108856976D01*
X148040163Y-108950846D01*
X148049289Y-108963211D01*
X148049292Y-108963213D01*
X148049293Y-108963214D01*
X148155523Y-109041615D01*
X148155524Y-109041615D01*
X148155525Y-109041616D01*
X148280151Y-109085225D01*
X148307441Y-109087784D01*
X148309733Y-109087999D01*
X148309738Y-109088000D01*
X148309744Y-109088000D01*
X148890262Y-109088000D01*
X148890265Y-109087999D01*
X148919849Y-109085225D01*
X149044475Y-109041616D01*
X149150711Y-108963211D01*
X149229116Y-108856975D01*
X149272725Y-108732349D01*
X149275500Y-108702756D01*
X149275500Y-108097244D01*
X149275500Y-108097238D01*
X149275499Y-108097233D01*
X149272725Y-108067655D01*
X149272725Y-108067651D01*
X149229116Y-107943025D01*
X149217491Y-107927274D01*
X149150714Y-107836793D01*
X149150713Y-107836792D01*
X149150711Y-107836789D01*
X149150706Y-107836785D01*
X149044476Y-107758384D01*
X148934055Y-107719746D01*
X158649500Y-107719746D01*
X158649501Y-107719758D01*
X158661132Y-107778227D01*
X158661134Y-107778233D01*
X158705445Y-107844548D01*
X158705448Y-107844552D01*
X158771769Y-107888867D01*
X158816231Y-107897711D01*
X158830241Y-107900498D01*
X158830246Y-107900498D01*
X158830252Y-107900500D01*
X158830253Y-107900500D01*
X160869747Y-107900500D01*
X160869748Y-107900500D01*
X160928231Y-107888867D01*
X160994552Y-107844552D01*
X161038867Y-107778231D01*
X161050500Y-107719748D01*
X161050500Y-106780252D01*
X161038867Y-106721769D01*
X160994552Y-106655448D01*
X160994548Y-106655445D01*
X160928233Y-106611134D01*
X160928231Y-106611133D01*
X160928228Y-106611132D01*
X160928227Y-106611132D01*
X160869758Y-106599501D01*
X160869748Y-106599500D01*
X158830252Y-106599500D01*
X158830251Y-106599500D01*
X158830241Y-106599501D01*
X158771772Y-106611132D01*
X158771766Y-106611134D01*
X158705451Y-106655445D01*
X158705445Y-106655451D01*
X158661134Y-106721766D01*
X158661132Y-106721772D01*
X158649501Y-106780241D01*
X158649500Y-106780253D01*
X158649500Y-107719746D01*
X148934055Y-107719746D01*
X148919852Y-107714776D01*
X148919851Y-107714775D01*
X148919849Y-107714775D01*
X148919847Y-107714774D01*
X148919844Y-107714774D01*
X148890266Y-107712000D01*
X148890256Y-107712000D01*
X148859918Y-107712000D01*
X148819853Y-107703531D01*
X148697763Y-107649500D01*
X148217118Y-107436789D01*
X148082155Y-107377061D01*
X148052216Y-107356534D01*
X147505992Y-106810310D01*
X146902712Y-106207030D01*
X146822788Y-106160886D01*
X146822785Y-106160885D01*
X146802250Y-106155382D01*
X146802250Y-106155383D01*
X146733644Y-106137000D01*
X146733642Y-106137000D01*
X144563137Y-106137000D01*
X144538672Y-106133929D01*
X144529933Y-106131700D01*
X144529928Y-106131699D01*
X143846190Y-106095204D01*
X143846184Y-106095204D01*
X143846181Y-106095204D01*
X143844757Y-106095264D01*
X143844389Y-106095195D01*
X143843816Y-106095192D01*
X143843816Y-106095086D01*
X143800488Y-106086885D01*
X143072155Y-105764561D01*
X143042218Y-105744036D01*
X142817712Y-105519530D01*
X142737788Y-105473386D01*
X142648644Y-105449500D01*
X140853856Y-105449500D01*
X140764712Y-105473386D01*
X140685090Y-105519356D01*
X140684785Y-105519532D01*
X140408813Y-105795504D01*
X140354297Y-105823281D01*
X140338810Y-105824500D01*
X139943388Y-105824500D01*
X139898140Y-105813555D01*
X139365171Y-105539684D01*
X139358134Y-105535318D01*
X139353236Y-105532729D01*
X139343493Y-105528544D01*
X139341380Y-105527458D01*
X139292288Y-105511592D01*
X139290038Y-105510835D01*
X139229846Y-105489774D01*
X139200266Y-105487000D01*
X139200256Y-105487000D01*
X138619744Y-105487000D01*
X138619733Y-105487000D01*
X138590155Y-105489774D01*
X138590147Y-105489776D01*
X138465523Y-105533384D01*
X138359293Y-105611785D01*
X138359285Y-105611793D01*
X138280884Y-105718023D01*
X138237276Y-105842647D01*
X138237274Y-105842655D01*
X138234500Y-105872233D01*
X138234500Y-105878704D01*
X138223593Y-105923878D01*
X137855086Y-106642490D01*
X137836998Y-106667318D01*
X137783816Y-106720502D01*
X137729300Y-106748281D01*
X137713811Y-106749500D01*
X136453856Y-106749500D01*
X136384929Y-106767969D01*
X136384928Y-106767968D01*
X136364713Y-106773385D01*
X136294429Y-106813964D01*
X136284788Y-106819530D01*
X135919530Y-107184788D01*
X135901965Y-107215212D01*
X135889364Y-107237037D01*
X135873387Y-107264709D01*
X135873386Y-107264711D01*
X135873386Y-107264712D01*
X135849500Y-107353856D01*
X135849500Y-109553856D01*
X135849500Y-113846144D01*
X116000000Y-113846144D01*
X116000000Y-110400000D01*
X130394671Y-110400000D01*
X130413965Y-110694377D01*
X130435431Y-110802293D01*
X130471519Y-110983722D01*
X130471520Y-110983726D01*
X130471521Y-110983729D01*
X130566347Y-111263075D01*
X130566352Y-111263086D01*
X130696828Y-111527665D01*
X130860724Y-111772953D01*
X130860734Y-111772965D01*
X130993659Y-111924537D01*
X131055242Y-111994758D01*
X131277043Y-112189273D01*
X131522335Y-112353172D01*
X131786923Y-112483652D01*
X132066278Y-112578481D01*
X132355620Y-112636034D01*
X132650000Y-112655329D01*
X132944380Y-112636034D01*
X133233722Y-112578481D01*
X133513077Y-112483652D01*
X133777665Y-112353172D01*
X134022957Y-112189273D01*
X134244758Y-111994758D01*
X134439273Y-111772957D01*
X134603172Y-111527665D01*
X134733652Y-111263077D01*
X134828481Y-110983722D01*
X134886034Y-110694380D01*
X134905329Y-110400000D01*
X134886034Y-110105620D01*
X134828481Y-109816278D01*
X134733652Y-109536923D01*
X134603172Y-109272336D01*
X134439273Y-109027043D01*
X134290127Y-108856975D01*
X134244766Y-108805251D01*
X134244765Y-108805250D01*
X134244758Y-108805242D01*
X134171383Y-108740894D01*
X134022965Y-108610734D01*
X134022955Y-108610726D01*
X133951844Y-108563211D01*
X133777665Y-108446828D01*
X133513086Y-108316352D01*
X133513075Y-108316347D01*
X133233729Y-108221521D01*
X133233726Y-108221520D01*
X133233722Y-108221519D01*
X133059805Y-108186925D01*
X132944377Y-108163965D01*
X132650000Y-108144671D01*
X132355622Y-108163965D01*
X132183258Y-108198250D01*
X132066278Y-108221519D01*
X132066275Y-108221519D01*
X132066270Y-108221521D01*
X131786924Y-108316347D01*
X131786913Y-108316352D01*
X131522336Y-108446827D01*
X131277043Y-108610726D01*
X131277034Y-108610734D01*
X131055251Y-108805233D01*
X131055233Y-108805251D01*
X130860734Y-109027034D01*
X130860726Y-109027043D01*
X130696827Y-109272336D01*
X130566352Y-109536913D01*
X130566347Y-109536924D01*
X130471521Y-109816270D01*
X130471519Y-109816275D01*
X130471519Y-109816278D01*
X130450443Y-109922238D01*
X130413965Y-110105622D01*
X130394671Y-110399999D01*
X130394671Y-110400000D01*
X116000000Y-110400000D01*
X116000000Y-107719746D01*
X125449500Y-107719746D01*
X125449501Y-107719758D01*
X125461132Y-107778227D01*
X125461134Y-107778233D01*
X125505445Y-107844548D01*
X125505448Y-107844552D01*
X125571769Y-107888867D01*
X125616231Y-107897711D01*
X125630241Y-107900498D01*
X125630246Y-107900498D01*
X125630252Y-107900500D01*
X125630253Y-107900500D01*
X127669747Y-107900500D01*
X127669748Y-107900500D01*
X127728231Y-107888867D01*
X127794552Y-107844552D01*
X127838867Y-107778231D01*
X127850500Y-107719748D01*
X127850500Y-106780252D01*
X127838867Y-106721769D01*
X127794552Y-106655448D01*
X127794548Y-106655445D01*
X127728233Y-106611134D01*
X127728231Y-106611133D01*
X127728228Y-106611132D01*
X127728227Y-106611132D01*
X127669758Y-106599501D01*
X127669748Y-106599500D01*
X125630252Y-106599500D01*
X125630251Y-106599500D01*
X125630241Y-106599501D01*
X125571772Y-106611132D01*
X125571766Y-106611134D01*
X125505451Y-106655445D01*
X125505445Y-106655451D01*
X125461134Y-106721766D01*
X125461132Y-106721772D01*
X125449501Y-106780241D01*
X125449500Y-106780253D01*
X125449500Y-107719746D01*
X116000000Y-107719746D01*
X116000000Y-106001200D01*
X116000030Y-105998776D01*
X116002198Y-105910275D01*
X116004070Y-105893386D01*
X116007643Y-105875420D01*
X116038843Y-105718568D01*
X116044472Y-105700012D01*
X116112216Y-105536464D01*
X116121357Y-105519362D01*
X116219704Y-105372176D01*
X116232007Y-105357183D01*
X116357183Y-105232007D01*
X116372176Y-105219704D01*
X116519362Y-105121357D01*
X116536464Y-105112216D01*
X116700012Y-105044472D01*
X116718568Y-105038843D01*
X116893386Y-105004070D01*
X116910274Y-105002198D01*
X116981014Y-105000465D01*
X116998776Y-105000030D01*
X117001200Y-105000000D01*
X169998800Y-105000000D01*
X170001224Y-105000030D01*
G37*
G04 #@! TD.AperFunction*
G04 #@! TA.AperFunction,Conductor*
G36*
X138447900Y-109731958D02*
G01*
X139043268Y-110025612D01*
X139049171Y-110032345D01*
X139048912Y-110040557D01*
X138902563Y-110396195D01*
X138896245Y-110402542D01*
X138896195Y-110402563D01*
X138540557Y-110548912D01*
X138531603Y-110548891D01*
X138525612Y-110543268D01*
X138231958Y-109947900D01*
X138231372Y-109938964D01*
X138234176Y-109934453D01*
X138434452Y-109734177D01*
X138442724Y-109730751D01*
X138447900Y-109731958D01*
G37*
G04 #@! TD.AperFunction*
G04 #@! TA.AperFunction,Conductor*
G36*
X138511499Y-107589196D02*
G01*
X138843530Y-107930645D01*
X138903261Y-107992070D01*
X138906572Y-108000391D01*
X138904467Y-108006924D01*
X138589585Y-108458000D01*
X138582039Y-108462822D01*
X138573294Y-108460897D01*
X138571739Y-108459597D01*
X138150000Y-108040000D01*
X137887134Y-108040000D01*
X137878861Y-108036573D01*
X137875434Y-108028300D01*
X137878861Y-108020027D01*
X137880427Y-108018713D01*
X137918510Y-107992070D01*
X138496408Y-107587766D01*
X138505149Y-107585833D01*
X138511499Y-107589196D01*
G37*
G04 #@! TD.AperFunction*
G04 #@! TA.AperFunction,Conductor*
G36*
X137763398Y-107668877D02*
G01*
X137763751Y-107669380D01*
X138137906Y-108231820D01*
X138139636Y-108240606D01*
X138134645Y-108248041D01*
X138128165Y-108250000D01*
X137849999Y-108250000D01*
X137638260Y-108459645D01*
X137629970Y-108463031D01*
X137621714Y-108459563D01*
X137620434Y-108458028D01*
X137306498Y-108008308D01*
X137304573Y-107999563D01*
X137309107Y-107992225D01*
X137747028Y-107666471D01*
X137755710Y-107664284D01*
X137763398Y-107668877D01*
G37*
G04 #@! TD.AperFunction*
G04 #@! TA.AperFunction,Conductor*
G36*
X147967080Y-107550859D02*
G01*
X148774145Y-107908027D01*
X148780323Y-107914509D01*
X148780362Y-107922843D01*
X148602497Y-108395945D01*
X148596378Y-108402483D01*
X148596003Y-108402645D01*
X148135469Y-108592436D01*
X148126514Y-108592420D01*
X148120346Y-108586429D01*
X147750934Y-107767111D01*
X147750659Y-107758163D01*
X147753326Y-107754033D01*
X147954074Y-107553285D01*
X147962346Y-107549859D01*
X147967080Y-107550859D01*
G37*
G04 #@! TD.AperFunction*
G04 #@! TA.AperFunction,Conductor*
G36*
X139247453Y-105710237D02*
G01*
X139853647Y-106021735D01*
X139859440Y-106028564D01*
X139860000Y-106032141D01*
X139860000Y-106317858D01*
X139856573Y-106326131D01*
X139853647Y-106328264D01*
X139247454Y-106639761D01*
X139238530Y-106640495D01*
X139232531Y-106636076D01*
X138913714Y-106181719D01*
X138911768Y-106172980D01*
X138913715Y-106168280D01*
X139011752Y-106028564D01*
X139232532Y-105713922D01*
X139240087Y-105709120D01*
X139247453Y-105710237D01*
G37*
G04 #@! TD.AperFunction*
G04 #@! TA.AperFunction,Conductor*
G36*
X139532325Y-120616584D02*
G01*
X140298112Y-121019987D01*
X140303835Y-121026874D01*
X140303431Y-121034904D01*
X140102683Y-121508542D01*
X140096300Y-121514822D01*
X140095952Y-121514956D01*
X139636040Y-121684231D01*
X139627093Y-121683873D01*
X139621019Y-121677292D01*
X139620997Y-121677231D01*
X139562240Y-121514822D01*
X139315097Y-120831692D01*
X139315505Y-120822747D01*
X139317823Y-120819442D01*
X139518602Y-120618663D01*
X139526874Y-120615237D01*
X139532325Y-120616584D01*
G37*
G04 #@! TD.AperFunction*
G04 #@! TA.AperFunction,Conductor*
G36*
X139768396Y-120551108D02*
G01*
X139774387Y-120556731D01*
X140068041Y-121152099D01*
X140068627Y-121161035D01*
X140065821Y-121165548D01*
X139865548Y-121365821D01*
X139857275Y-121369248D01*
X139852099Y-121368041D01*
X139256731Y-121074387D01*
X139250828Y-121067654D01*
X139251087Y-121059442D01*
X139397437Y-120703802D01*
X139403753Y-120697457D01*
X139759442Y-120551087D01*
X139768396Y-120551108D01*
G37*
G04 #@! TD.AperFunction*
G04 #@! TA.AperFunction,Conductor*
G36*
X142957080Y-105938359D02*
G01*
X143764145Y-106295527D01*
X143770323Y-106302009D01*
X143770362Y-106310343D01*
X143592497Y-106783445D01*
X143586378Y-106789983D01*
X143586003Y-106790145D01*
X143125469Y-106979936D01*
X143116514Y-106979920D01*
X143110346Y-106973929D01*
X142740934Y-106154611D01*
X142740659Y-106145663D01*
X142743326Y-106141533D01*
X142944074Y-105940785D01*
X142952346Y-105937359D01*
X142957080Y-105938359D01*
G37*
G04 #@! TD.AperFunction*
G04 #@! TA.AperFunction,Conductor*
G36*
X138447900Y-115831958D02*
G01*
X139043268Y-116125612D01*
X139049171Y-116132345D01*
X139048912Y-116140557D01*
X138902563Y-116496195D01*
X138896245Y-116502542D01*
X138896195Y-116502563D01*
X138540557Y-116648912D01*
X138531603Y-116648891D01*
X138525612Y-116643268D01*
X138231958Y-116047900D01*
X138231372Y-116038964D01*
X138234176Y-116034453D01*
X138434452Y-115834177D01*
X138442724Y-115830751D01*
X138447900Y-115831958D01*
G37*
G04 #@! TD.AperFunction*
G04 #@! TA.AperFunction,Conductor*
G36*
X138445120Y-105966496D02*
G01*
X138906043Y-106172211D01*
X138912202Y-106178712D01*
X138912351Y-106179126D01*
X139073168Y-106651743D01*
X139072589Y-106660679D01*
X139066183Y-106666473D01*
X138242746Y-106973802D01*
X138233797Y-106973485D01*
X138230382Y-106971114D01*
X138029595Y-106770327D01*
X138026168Y-106762054D01*
X138027456Y-106756717D01*
X138429943Y-105971840D01*
X138436766Y-105966044D01*
X138445120Y-105966496D01*
G37*
G04 #@! TD.AperFunction*
G04 #@! TA.AperFunction,Conductor*
G36*
X144518979Y-106336908D02*
G01*
X144527056Y-106340771D01*
X144530054Y-106348591D01*
X144530054Y-106632740D01*
X144526731Y-106640907D01*
X144044376Y-107135666D01*
X144036148Y-107139198D01*
X144028723Y-107136662D01*
X143596369Y-106793351D01*
X143592021Y-106785522D01*
X143593134Y-106779049D01*
X143824098Y-106306952D01*
X143830812Y-106301028D01*
X143835228Y-106300412D01*
X144518979Y-106336908D01*
G37*
G04 #@! TD.AperFunction*
G04 #@! TA.AperFunction,Conductor*
G36*
X142337453Y-108147737D02*
G01*
X142943647Y-108459235D01*
X142949440Y-108466064D01*
X142950000Y-108469641D01*
X142950000Y-108755358D01*
X142946573Y-108763631D01*
X142943647Y-108765764D01*
X142337454Y-109077261D01*
X142328530Y-109077995D01*
X142322531Y-109073576D01*
X142003714Y-108619219D01*
X142001768Y-108610480D01*
X142003715Y-108605780D01*
X142101752Y-108466064D01*
X142322532Y-108151422D01*
X142330087Y-108146620D01*
X142337453Y-108147737D01*
G37*
G04 #@! TD.AperFunction*
G04 #@! TA.AperFunction,Conductor*
G36*
X143267469Y-108151424D02*
G01*
X143586284Y-108605780D01*
X143588231Y-108614520D01*
X143586284Y-108619220D01*
X143267469Y-109073575D01*
X143259912Y-109078379D01*
X143252545Y-109077261D01*
X142646353Y-108765764D01*
X142640560Y-108758935D01*
X142640000Y-108755358D01*
X142640000Y-108469641D01*
X142643427Y-108461368D01*
X142646350Y-108459236D01*
X143252546Y-108147737D01*
X143261469Y-108147004D01*
X143267469Y-108151424D01*
G37*
G04 #@! TD.AperFunction*
G04 #@! TA.AperFunction,Conductor*
G36*
X143597084Y-108617292D02*
G01*
X144025167Y-108967317D01*
X144029403Y-108975206D01*
X144027627Y-108982664D01*
X143653449Y-109569590D01*
X143646112Y-109574723D01*
X143643583Y-109575000D01*
X143358309Y-109575000D01*
X143350036Y-109571573D01*
X143347262Y-109567155D01*
X143135901Y-108961474D01*
X143136411Y-108952536D01*
X143139936Y-108948255D01*
X143582673Y-108616982D01*
X143591347Y-108614770D01*
X143597084Y-108617292D01*
G37*
G04 #@! TD.AperFunction*
G04 #@! TA.AperFunction,Conductor*
G36*
X143649889Y-109503427D02*
G01*
X143652695Y-109507940D01*
X143866038Y-110136574D01*
X143865452Y-110145510D01*
X143859461Y-110151133D01*
X143504502Y-110299123D01*
X143495548Y-110299144D01*
X143495498Y-110299123D01*
X143140538Y-110151133D01*
X143134220Y-110144786D01*
X143133961Y-110136575D01*
X143347305Y-109507939D01*
X143353208Y-109501207D01*
X143358384Y-109500000D01*
X143641616Y-109500000D01*
X143649889Y-109503427D01*
G37*
G04 #@! TD.AperFunction*
G04 #@! TA.AperFunction,Conductor*
G36*
X148277469Y-109763924D02*
G01*
X148596284Y-110218280D01*
X148598231Y-110227020D01*
X148596284Y-110231720D01*
X148277469Y-110686075D01*
X148269912Y-110690879D01*
X148262545Y-110689761D01*
X147656353Y-110378264D01*
X147650560Y-110371435D01*
X147650000Y-110367858D01*
X147650000Y-110082141D01*
X147653427Y-110073868D01*
X147656350Y-110071736D01*
X148262546Y-109760237D01*
X148271469Y-109759504D01*
X148277469Y-109763924D01*
G37*
G04 #@! TD.AperFunction*
G04 #@! TA.AperFunction,Conductor*
G36*
X147367453Y-109760237D02*
G01*
X147973647Y-110071735D01*
X147979440Y-110078564D01*
X147980000Y-110082141D01*
X147980000Y-110367858D01*
X147976573Y-110376131D01*
X147973647Y-110378264D01*
X147367454Y-110689761D01*
X147358530Y-110690495D01*
X147352531Y-110686076D01*
X147033714Y-110231719D01*
X147031768Y-110222980D01*
X147033715Y-110218280D01*
X147131752Y-110078564D01*
X147352532Y-109763922D01*
X147360087Y-109759120D01*
X147367453Y-109760237D01*
G37*
G04 #@! TD.AperFunction*
G04 #@! TA.AperFunction,Conductor*
G36*
X147037708Y-110229535D02*
G01*
X147479081Y-110560017D01*
X147483649Y-110567719D01*
X147482521Y-110574638D01*
X147130965Y-111273970D01*
X147124188Y-111279823D01*
X147115257Y-111279168D01*
X147112239Y-111276988D01*
X146912390Y-111077139D01*
X146910912Y-111075332D01*
X146579194Y-110575109D01*
X146577478Y-110566320D01*
X146581944Y-110559269D01*
X147023698Y-110229524D01*
X147032376Y-110227322D01*
X147037708Y-110229535D01*
G37*
G04 #@! TD.AperFunction*
G04 #@! TA.AperFunction,Conductor*
G36*
X147176895Y-110685276D02*
G01*
X147180317Y-110693223D01*
X147199665Y-111388004D01*
X147196470Y-111396370D01*
X147188296Y-111400025D01*
X147187999Y-111400030D01*
X146804875Y-111400987D01*
X146796594Y-111397581D01*
X146796558Y-111397546D01*
X146524686Y-111124712D01*
X146521274Y-111116432D01*
X146523986Y-111108963D01*
X146771759Y-110811707D01*
X146876492Y-110686058D01*
X146884421Y-110681897D01*
X146885479Y-110681849D01*
X147168622Y-110681849D01*
X147176895Y-110685276D01*
G37*
G04 #@! TD.AperFunction*
G04 #@! TA.AperFunction,Conductor*
G36*
X140242211Y-119538690D02*
G01*
X140889412Y-119599013D01*
X140897331Y-119603193D01*
X140900026Y-119610634D01*
X140900987Y-119995124D01*
X140897581Y-120003405D01*
X140897546Y-120003441D01*
X140626021Y-120274009D01*
X140617741Y-120277421D01*
X140609474Y-120273980D01*
X140608946Y-120273412D01*
X140232317Y-119840803D01*
X140229441Y-119833121D01*
X140229441Y-119550341D01*
X140232868Y-119542068D01*
X140241141Y-119538641D01*
X140242211Y-119538690D01*
G37*
G04 #@! TD.AperFunction*
G04 #@! TA.AperFunction,Conductor*
G36*
X140565862Y-119364901D02*
G01*
X140999236Y-119885726D01*
X141001893Y-119894277D01*
X140998515Y-119901482D01*
X140796654Y-120103343D01*
X140790128Y-120106639D01*
X140345994Y-120173717D01*
X140337302Y-120171564D01*
X140333733Y-120167281D01*
X140103620Y-119695663D01*
X140103073Y-119686726D01*
X140107305Y-119681035D01*
X140550042Y-119362883D01*
X140558759Y-119360839D01*
X140565862Y-119364901D01*
G37*
G04 #@! TD.AperFunction*
M02*
