G04 #@! TF.GenerationSoftware,KiCad,Pcbnew,8.0.1*
G04 #@! TF.CreationDate,2025-04-04T09:34:18-04:00*
G04 #@! TF.ProjectId,LVC_Custom,4c56435f-4375-4737-946f-6d2e6b696361,rev?*
G04 #@! TF.SameCoordinates,Original*
G04 #@! TF.FileFunction,Legend,Bot*
G04 #@! TF.FilePolarity,Positive*
%FSLAX46Y46*%
G04 Gerber Fmt 4.6, Leading zero omitted, Abs format (unit mm)*
G04 Created by KiCad (PCBNEW 8.0.1) date 2025-04-04 09:34:18*
%MOMM*%
%LPD*%
G01*
G04 APERTURE LIST*
G04 Aperture macros list*
%AMRoundRect*
0 Rectangle with rounded corners*
0 $1 Rounding radius*
0 $2 $3 $4 $5 $6 $7 $8 $9 X,Y pos of 4 corners*
0 Add a 4 corners polygon primitive as box body*
4,1,4,$2,$3,$4,$5,$6,$7,$8,$9,$2,$3,0*
0 Add four circle primitives for the rounded corners*
1,1,$1+$1,$2,$3*
1,1,$1+$1,$4,$5*
1,1,$1+$1,$6,$7*
1,1,$1+$1,$8,$9*
0 Add four rect primitives between the rounded corners*
20,1,$1+$1,$2,$3,$4,$5,0*
20,1,$1+$1,$4,$5,$6,$7,0*
20,1,$1+$1,$6,$7,$8,$9,0*
20,1,$1+$1,$8,$9,$2,$3,0*%
G04 Aperture macros list end*
%ADD10C,0.125000*%
%ADD11C,0.150000*%
%ADD12C,0.508000*%
%ADD13C,0.120000*%
%ADD14C,1.447800*%
%ADD15RoundRect,0.237500X-0.237500X0.250000X-0.237500X-0.250000X0.237500X-0.250000X0.237500X0.250000X0*%
%ADD16R,2.000000X0.900000*%
%ADD17RoundRect,1.025000X-1.025000X1.025000X-1.025000X-1.025000X1.025000X-1.025000X1.025000X1.025000X0*%
%ADD18C,4.100000*%
%ADD19RoundRect,0.237500X0.237500X-0.250000X0.237500X0.250000X-0.237500X0.250000X-0.237500X-0.250000X0*%
%ADD20RoundRect,1.025000X1.025000X-1.025000X1.025000X1.025000X-1.025000X1.025000X-1.025000X-1.025000X0*%
G04 APERTURE END LIST*
D10*
X136083333Y-106324809D02*
X136249999Y-106086714D01*
X136369047Y-106324809D02*
X136369047Y-105824809D01*
X136369047Y-105824809D02*
X136178571Y-105824809D01*
X136178571Y-105824809D02*
X136130952Y-105848619D01*
X136130952Y-105848619D02*
X136107142Y-105872428D01*
X136107142Y-105872428D02*
X136083333Y-105920047D01*
X136083333Y-105920047D02*
X136083333Y-105991476D01*
X136083333Y-105991476D02*
X136107142Y-106039095D01*
X136107142Y-106039095D02*
X136130952Y-106062904D01*
X136130952Y-106062904D02*
X136178571Y-106086714D01*
X136178571Y-106086714D02*
X136369047Y-106086714D01*
X135892856Y-105872428D02*
X135869047Y-105848619D01*
X135869047Y-105848619D02*
X135821428Y-105824809D01*
X135821428Y-105824809D02*
X135702380Y-105824809D01*
X135702380Y-105824809D02*
X135654761Y-105848619D01*
X135654761Y-105848619D02*
X135630952Y-105872428D01*
X135630952Y-105872428D02*
X135607142Y-105920047D01*
X135607142Y-105920047D02*
X135607142Y-105967666D01*
X135607142Y-105967666D02*
X135630952Y-106039095D01*
X135630952Y-106039095D02*
X135916666Y-106324809D01*
X135916666Y-106324809D02*
X135607142Y-106324809D01*
X134066666Y-120924809D02*
X134066666Y-121281952D01*
X134066666Y-121281952D02*
X134090475Y-121353380D01*
X134090475Y-121353380D02*
X134138094Y-121401000D01*
X134138094Y-121401000D02*
X134209523Y-121424809D01*
X134209523Y-121424809D02*
X134257142Y-121424809D01*
X133852380Y-120972428D02*
X133828571Y-120948619D01*
X133828571Y-120948619D02*
X133780952Y-120924809D01*
X133780952Y-120924809D02*
X133661904Y-120924809D01*
X133661904Y-120924809D02*
X133614285Y-120948619D01*
X133614285Y-120948619D02*
X133590476Y-120972428D01*
X133590476Y-120972428D02*
X133566666Y-121020047D01*
X133566666Y-121020047D02*
X133566666Y-121067666D01*
X133566666Y-121067666D02*
X133590476Y-121139095D01*
X133590476Y-121139095D02*
X133876190Y-121424809D01*
X133876190Y-121424809D02*
X133566666Y-121424809D01*
D11*
X135223866Y-120019048D02*
X135223866Y-120780953D01*
X135264700Y-107528571D02*
X135264700Y-108671429D01*
X135836128Y-108100000D02*
X134693271Y-108100000D01*
D10*
X145103333Y-107924809D02*
X145269999Y-107686714D01*
X145389047Y-107924809D02*
X145389047Y-107424809D01*
X145389047Y-107424809D02*
X145198571Y-107424809D01*
X145198571Y-107424809D02*
X145150952Y-107448619D01*
X145150952Y-107448619D02*
X145127142Y-107472428D01*
X145127142Y-107472428D02*
X145103333Y-107520047D01*
X145103333Y-107520047D02*
X145103333Y-107591476D01*
X145103333Y-107591476D02*
X145127142Y-107639095D01*
X145127142Y-107639095D02*
X145150952Y-107662904D01*
X145150952Y-107662904D02*
X145198571Y-107686714D01*
X145198571Y-107686714D02*
X145389047Y-107686714D01*
X144936666Y-107424809D02*
X144627142Y-107424809D01*
X144627142Y-107424809D02*
X144793809Y-107615285D01*
X144793809Y-107615285D02*
X144722380Y-107615285D01*
X144722380Y-107615285D02*
X144674761Y-107639095D01*
X144674761Y-107639095D02*
X144650952Y-107662904D01*
X144650952Y-107662904D02*
X144627142Y-107710523D01*
X144627142Y-107710523D02*
X144627142Y-107829571D01*
X144627142Y-107829571D02*
X144650952Y-107877190D01*
X144650952Y-107877190D02*
X144674761Y-107901000D01*
X144674761Y-107901000D02*
X144722380Y-107924809D01*
X144722380Y-107924809D02*
X144865237Y-107924809D01*
X144865237Y-107924809D02*
X144912856Y-107901000D01*
X144912856Y-107901000D02*
X144936666Y-107877190D01*
X148683333Y-107524809D02*
X148849999Y-107286714D01*
X148969047Y-107524809D02*
X148969047Y-107024809D01*
X148969047Y-107024809D02*
X148778571Y-107024809D01*
X148778571Y-107024809D02*
X148730952Y-107048619D01*
X148730952Y-107048619D02*
X148707142Y-107072428D01*
X148707142Y-107072428D02*
X148683333Y-107120047D01*
X148683333Y-107120047D02*
X148683333Y-107191476D01*
X148683333Y-107191476D02*
X148707142Y-107239095D01*
X148707142Y-107239095D02*
X148730952Y-107262904D01*
X148730952Y-107262904D02*
X148778571Y-107286714D01*
X148778571Y-107286714D02*
X148969047Y-107286714D01*
X148230952Y-107024809D02*
X148469047Y-107024809D01*
X148469047Y-107024809D02*
X148492856Y-107262904D01*
X148492856Y-107262904D02*
X148469047Y-107239095D01*
X148469047Y-107239095D02*
X148421428Y-107215285D01*
X148421428Y-107215285D02*
X148302380Y-107215285D01*
X148302380Y-107215285D02*
X148254761Y-107239095D01*
X148254761Y-107239095D02*
X148230952Y-107262904D01*
X148230952Y-107262904D02*
X148207142Y-107310523D01*
X148207142Y-107310523D02*
X148207142Y-107429571D01*
X148207142Y-107429571D02*
X148230952Y-107477190D01*
X148230952Y-107477190D02*
X148254761Y-107501000D01*
X148254761Y-107501000D02*
X148302380Y-107524809D01*
X148302380Y-107524809D02*
X148421428Y-107524809D01*
X148421428Y-107524809D02*
X148469047Y-107501000D01*
X148469047Y-107501000D02*
X148492856Y-107477190D01*
X140283333Y-106224809D02*
X140449999Y-105986714D01*
X140569047Y-106224809D02*
X140569047Y-105724809D01*
X140569047Y-105724809D02*
X140378571Y-105724809D01*
X140378571Y-105724809D02*
X140330952Y-105748619D01*
X140330952Y-105748619D02*
X140307142Y-105772428D01*
X140307142Y-105772428D02*
X140283333Y-105820047D01*
X140283333Y-105820047D02*
X140283333Y-105891476D01*
X140283333Y-105891476D02*
X140307142Y-105939095D01*
X140307142Y-105939095D02*
X140330952Y-105962904D01*
X140330952Y-105962904D02*
X140378571Y-105986714D01*
X140378571Y-105986714D02*
X140569047Y-105986714D01*
X139807142Y-106224809D02*
X140092856Y-106224809D01*
X139949999Y-106224809D02*
X139949999Y-105724809D01*
X139949999Y-105724809D02*
X139997618Y-105796238D01*
X139997618Y-105796238D02*
X140045237Y-105843857D01*
X140045237Y-105843857D02*
X140092856Y-105867666D01*
X140183333Y-118724809D02*
X140349999Y-118486714D01*
X140469047Y-118724809D02*
X140469047Y-118224809D01*
X140469047Y-118224809D02*
X140278571Y-118224809D01*
X140278571Y-118224809D02*
X140230952Y-118248619D01*
X140230952Y-118248619D02*
X140207142Y-118272428D01*
X140207142Y-118272428D02*
X140183333Y-118320047D01*
X140183333Y-118320047D02*
X140183333Y-118391476D01*
X140183333Y-118391476D02*
X140207142Y-118439095D01*
X140207142Y-118439095D02*
X140230952Y-118462904D01*
X140230952Y-118462904D02*
X140278571Y-118486714D01*
X140278571Y-118486714D02*
X140469047Y-118486714D01*
X139897618Y-118439095D02*
X139945237Y-118415285D01*
X139945237Y-118415285D02*
X139969047Y-118391476D01*
X139969047Y-118391476D02*
X139992856Y-118343857D01*
X139992856Y-118343857D02*
X139992856Y-118320047D01*
X139992856Y-118320047D02*
X139969047Y-118272428D01*
X139969047Y-118272428D02*
X139945237Y-118248619D01*
X139945237Y-118248619D02*
X139897618Y-118224809D01*
X139897618Y-118224809D02*
X139802380Y-118224809D01*
X139802380Y-118224809D02*
X139754761Y-118248619D01*
X139754761Y-118248619D02*
X139730952Y-118272428D01*
X139730952Y-118272428D02*
X139707142Y-118320047D01*
X139707142Y-118320047D02*
X139707142Y-118343857D01*
X139707142Y-118343857D02*
X139730952Y-118391476D01*
X139730952Y-118391476D02*
X139754761Y-118415285D01*
X139754761Y-118415285D02*
X139802380Y-118439095D01*
X139802380Y-118439095D02*
X139897618Y-118439095D01*
X139897618Y-118439095D02*
X139945237Y-118462904D01*
X139945237Y-118462904D02*
X139969047Y-118486714D01*
X139969047Y-118486714D02*
X139992856Y-118534333D01*
X139992856Y-118534333D02*
X139992856Y-118629571D01*
X139992856Y-118629571D02*
X139969047Y-118677190D01*
X139969047Y-118677190D02*
X139945237Y-118701000D01*
X139945237Y-118701000D02*
X139897618Y-118724809D01*
X139897618Y-118724809D02*
X139802380Y-118724809D01*
X139802380Y-118724809D02*
X139754761Y-118701000D01*
X139754761Y-118701000D02*
X139730952Y-118677190D01*
X139730952Y-118677190D02*
X139707142Y-118629571D01*
X139707142Y-118629571D02*
X139707142Y-118534333D01*
X139707142Y-118534333D02*
X139730952Y-118486714D01*
X139730952Y-118486714D02*
X139754761Y-118462904D01*
X139754761Y-118462904D02*
X139802380Y-118439095D01*
X152566666Y-121324809D02*
X152566666Y-121681952D01*
X152566666Y-121681952D02*
X152590475Y-121753380D01*
X152590475Y-121753380D02*
X152638094Y-121801000D01*
X152638094Y-121801000D02*
X152709523Y-121824809D01*
X152709523Y-121824809D02*
X152757142Y-121824809D01*
X152066666Y-121824809D02*
X152352380Y-121824809D01*
X152209523Y-121824809D02*
X152209523Y-121324809D01*
X152209523Y-121324809D02*
X152257142Y-121396238D01*
X152257142Y-121396238D02*
X152304761Y-121443857D01*
X152304761Y-121443857D02*
X152352380Y-121467666D01*
D11*
X151464700Y-107528571D02*
X151464700Y-108671429D01*
X152036128Y-108100000D02*
X150893271Y-108100000D01*
X151464700Y-119828571D02*
X151464700Y-120971429D01*
D10*
X140783333Y-108224809D02*
X140949999Y-107986714D01*
X141069047Y-108224809D02*
X141069047Y-107724809D01*
X141069047Y-107724809D02*
X140878571Y-107724809D01*
X140878571Y-107724809D02*
X140830952Y-107748619D01*
X140830952Y-107748619D02*
X140807142Y-107772428D01*
X140807142Y-107772428D02*
X140783333Y-107820047D01*
X140783333Y-107820047D02*
X140783333Y-107891476D01*
X140783333Y-107891476D02*
X140807142Y-107939095D01*
X140807142Y-107939095D02*
X140830952Y-107962904D01*
X140830952Y-107962904D02*
X140878571Y-107986714D01*
X140878571Y-107986714D02*
X141069047Y-107986714D01*
X140354761Y-107891476D02*
X140354761Y-108224809D01*
X140473809Y-107701000D02*
X140592856Y-108058142D01*
X140592856Y-108058142D02*
X140283333Y-108058142D01*
X147083333Y-107524809D02*
X147249999Y-107286714D01*
X147369047Y-107524809D02*
X147369047Y-107024809D01*
X147369047Y-107024809D02*
X147178571Y-107024809D01*
X147178571Y-107024809D02*
X147130952Y-107048619D01*
X147130952Y-107048619D02*
X147107142Y-107072428D01*
X147107142Y-107072428D02*
X147083333Y-107120047D01*
X147083333Y-107120047D02*
X147083333Y-107191476D01*
X147083333Y-107191476D02*
X147107142Y-107239095D01*
X147107142Y-107239095D02*
X147130952Y-107262904D01*
X147130952Y-107262904D02*
X147178571Y-107286714D01*
X147178571Y-107286714D02*
X147369047Y-107286714D01*
X146654761Y-107024809D02*
X146749999Y-107024809D01*
X146749999Y-107024809D02*
X146797618Y-107048619D01*
X146797618Y-107048619D02*
X146821428Y-107072428D01*
X146821428Y-107072428D02*
X146869047Y-107143857D01*
X146869047Y-107143857D02*
X146892856Y-107239095D01*
X146892856Y-107239095D02*
X146892856Y-107429571D01*
X146892856Y-107429571D02*
X146869047Y-107477190D01*
X146869047Y-107477190D02*
X146845237Y-107501000D01*
X146845237Y-107501000D02*
X146797618Y-107524809D01*
X146797618Y-107524809D02*
X146702380Y-107524809D01*
X146702380Y-107524809D02*
X146654761Y-107501000D01*
X146654761Y-107501000D02*
X146630952Y-107477190D01*
X146630952Y-107477190D02*
X146607142Y-107429571D01*
X146607142Y-107429571D02*
X146607142Y-107310523D01*
X146607142Y-107310523D02*
X146630952Y-107262904D01*
X146630952Y-107262904D02*
X146654761Y-107239095D01*
X146654761Y-107239095D02*
X146702380Y-107215285D01*
X146702380Y-107215285D02*
X146797618Y-107215285D01*
X146797618Y-107215285D02*
X146845237Y-107239095D01*
X146845237Y-107239095D02*
X146869047Y-107262904D01*
X146869047Y-107262904D02*
X146892856Y-107310523D01*
D12*
X150432700Y-111151900D02*
G75*
G02*
X149670700Y-111151900I-381000J0D01*
G01*
X149670700Y-111151900D02*
G75*
G02*
X150432700Y-111151900I381000J0D01*
G01*
D13*
X136777500Y-107342224D02*
X136777500Y-106832776D01*
X137822500Y-107342224D02*
X137822500Y-106832776D01*
X117190000Y-121010000D02*
X117190000Y-106990000D01*
X124890000Y-106990000D02*
X117190000Y-106990000D01*
X124890000Y-106990000D02*
X124890000Y-106140000D01*
X124890000Y-121010000D02*
X117190000Y-121010000D01*
X124890000Y-121860000D02*
X124890000Y-121010000D01*
X130500000Y-106140000D02*
X124890000Y-106140000D01*
X130500000Y-121860000D02*
X124890000Y-121860000D01*
X134610000Y-115290000D02*
X134610000Y-111550000D01*
X130500000Y-106140001D02*
G75*
G02*
X134458718Y-109010100I40002J-4109997D01*
G01*
X134022958Y-119866806D02*
G75*
G02*
X130500000Y-121860000I-3522958J2116806D01*
G01*
X143067500Y-107445276D02*
X143067500Y-107954724D01*
X144112500Y-107445276D02*
X144112500Y-107954724D01*
X148077500Y-109057776D02*
X148077500Y-109567224D01*
X149122500Y-109057776D02*
X149122500Y-109567224D01*
X138387500Y-106832776D02*
X138387500Y-107342224D01*
X139432500Y-106832776D02*
X139432500Y-107342224D01*
X139577500Y-120854724D02*
X139577500Y-120345276D01*
X140622500Y-120854724D02*
X140622500Y-120345276D01*
X151890000Y-111550000D02*
X151890000Y-115290000D01*
X156000000Y-106140000D02*
X170310000Y-106140000D01*
X156000000Y-121860000D02*
X170310000Y-121860000D01*
X170310000Y-106140000D02*
X170310000Y-121860000D01*
X152069587Y-109048352D02*
G75*
G02*
X156000000Y-106140000I3930413J-1201648D01*
G01*
X156000000Y-121860000D02*
G75*
G02*
X152477042Y-119866806I-1J4109999D01*
G01*
X141477500Y-107954724D02*
X141477500Y-107445276D01*
X142522500Y-107954724D02*
X142522500Y-107445276D01*
X146507500Y-109057776D02*
X146507500Y-109567224D01*
X147552500Y-109057776D02*
X147552500Y-109567224D01*
%LPC*%
D14*
X145300000Y-109401840D03*
X140300000Y-109401840D03*
D15*
X137300000Y-106175000D03*
X137300000Y-108000000D03*
D16*
X126650000Y-107250000D03*
X126650000Y-120750000D03*
D17*
X132650000Y-117600000D03*
D18*
X132650000Y-110400000D03*
D19*
X143590000Y-108612500D03*
X143590000Y-106787500D03*
X148600000Y-110225000D03*
X148600000Y-108400000D03*
X138910000Y-108000000D03*
X138910000Y-106175000D03*
D15*
X140100000Y-119687500D03*
X140100000Y-121512500D03*
D16*
X159850000Y-120750000D03*
X159850000Y-107250000D03*
D20*
X153850000Y-117600000D03*
D18*
X153850000Y-110400000D03*
D15*
X142000000Y-106787500D03*
X142000000Y-108612500D03*
D19*
X147030000Y-110225000D03*
X147030000Y-108400000D03*
%LPD*%
M02*
